<svg width="518" height="477" viewBox="0 0 518 477" fill="none" xmlns="http://www.w3.org/2000/svg">
<rect y="36" width="518" height="398" rx="10" fill="#E2E8F0"/>
<path d="M62.5 10C62.5 4.75331 66.7533 0.5 72 0.5H446C451.247 0.5 455.5 4.7533 455.5 10V467C455.5 472.247 451.247 476.5 446 476.5H72C66.7533 476.5 62.5 472.247 62.5 467V10Z" fill="white" stroke="#CBD5E1"/>
<path d="M99.0085 56.6364H103.523L109.568 71.392H109.807L115.852 56.6364H120.366V77H116.827V63.0099H116.638L111.01 76.9403H108.365L102.737 62.9801H102.548V77H99.0085V56.6364ZM126.462 82.7273C125.971 82.7273 125.517 82.6875 125.099 82.608C124.688 82.535 124.36 82.4489 124.115 82.3494L124.95 79.5455C125.474 79.6979 125.941 79.7708 126.352 79.7642C126.763 79.7576 127.125 79.6283 127.436 79.3764C127.754 79.1312 128.023 78.7202 128.241 78.1435L128.55 77.3182L123.011 61.7273H126.83L130.349 73.2614H130.509L134.038 61.7273H137.866L131.751 78.8494C131.466 79.6581 131.089 80.3509 130.618 80.9276C130.147 81.5109 129.571 81.955 128.888 82.2599C128.212 82.5715 127.403 82.7273 126.462 82.7273ZM147.462 77V56.6364H155.098C156.662 56.6364 157.975 56.928 159.036 57.5114C160.103 58.0947 160.908 58.8968 161.452 59.9176C162.002 60.9318 162.277 62.0852 162.277 63.3778C162.277 64.6837 162.002 65.8437 161.452 66.858C160.902 67.8722 160.089 68.6709 159.016 69.2543C157.942 69.831 156.619 70.1193 155.048 70.1193H149.987V67.0866H154.551C155.466 67.0866 156.215 66.9276 156.798 66.6094C157.382 66.2912 157.813 65.8537 158.091 65.2969C158.376 64.7401 158.518 64.1004 158.518 63.3778C158.518 62.6553 158.376 62.0189 158.091 61.4688C157.813 60.9186 157.378 60.491 156.788 60.1861C156.205 59.8745 155.453 59.7188 154.531 59.7188H151.151V77H147.462ZM171.765 77.2983C170.274 77.2983 168.981 76.9702 167.887 76.3139C166.794 75.6577 165.945 74.7396 165.342 73.5597C164.745 72.3797 164.447 71.0009 164.447 69.4233C164.447 67.8456 164.745 66.4635 165.342 65.277C165.945 64.0904 166.794 63.169 167.887 62.5128C168.981 61.8565 170.274 61.5284 171.765 61.5284C173.257 61.5284 174.549 61.8565 175.643 62.5128C176.737 63.169 177.582 64.0904 178.179 65.277C178.782 66.4635 179.083 67.8456 179.083 69.4233C179.083 71.0009 178.782 72.3797 178.179 73.5597C177.582 74.7396 176.737 75.6577 175.643 76.3139C174.549 76.9702 173.257 77.2983 171.765 77.2983ZM171.785 74.4148C172.594 74.4148 173.27 74.1927 173.814 73.7486C174.357 73.2978 174.761 72.6946 175.027 71.9389C175.298 71.1832 175.434 70.3414 175.434 69.4134C175.434 68.4787 175.298 67.6335 175.027 66.8778C174.761 66.1155 174.357 65.509 173.814 65.0582C173.27 64.6075 172.594 64.3821 171.785 64.3821C170.957 64.3821 170.267 64.6075 169.717 65.0582C169.173 65.509 168.766 66.1155 168.494 66.8778C168.229 67.6335 168.096 68.4787 168.096 69.4134C168.096 70.3414 168.229 71.1832 168.494 71.9389C168.766 72.6946 169.173 73.2978 169.717 73.7486C170.267 74.1927 170.957 74.4148 171.785 74.4148ZM188.8 77.2983C187.276 77.2983 185.967 76.9635 184.873 76.294C183.786 75.6245 182.947 74.6998 182.357 73.5199C181.774 72.3333 181.482 70.9678 181.482 69.4233C181.482 67.8722 181.781 66.5033 182.377 65.3168C182.974 64.1236 183.816 63.1955 184.903 62.5327C185.996 61.8632 187.289 61.5284 188.781 61.5284C190.02 61.5284 191.117 61.7571 192.072 62.2145C193.033 62.6652 193.799 63.3049 194.369 64.1335C194.939 64.9555 195.263 65.9167 195.343 67.017H191.903C191.763 66.2812 191.432 65.6681 190.908 65.1776C190.391 64.6804 189.699 64.4318 188.83 64.4318C188.094 64.4318 187.448 64.6307 186.891 65.0284C186.335 65.4195 185.9 65.983 185.589 66.7188C185.284 67.4545 185.131 68.3362 185.131 69.3636C185.131 70.4044 185.284 71.2992 185.589 72.0483C185.894 72.7907 186.321 73.3641 186.871 73.7685C187.428 74.1662 188.081 74.3651 188.83 74.3651C189.361 74.3651 189.835 74.2656 190.252 74.0668C190.676 73.8613 191.031 73.5663 191.316 73.1818C191.601 72.7973 191.797 72.33 191.903 71.7798H195.343C195.257 72.8603 194.939 73.8182 194.388 74.6534C193.838 75.482 193.089 76.1316 192.141 76.6023C191.193 77.0663 190.08 77.2983 188.8 77.2983ZM201.58 72.2074L201.57 67.8622H202.147L207.635 61.7273H211.841L205.09 69.2443H204.344L201.58 72.2074ZM198.299 77V56.6364H201.898V77H198.299ZM207.884 77L202.912 70.0497L205.338 67.5142L212.189 77H207.884ZM220.373 77.2983C218.841 77.2983 217.519 76.9801 216.405 76.3438C215.298 75.7008 214.446 74.7926 213.85 73.6193C213.253 72.4394 212.955 71.0507 212.955 69.4531C212.955 67.8821 213.253 66.5033 213.85 65.3168C214.453 64.1236 215.295 63.1955 216.375 62.5327C217.456 61.8632 218.725 61.5284 220.184 61.5284C221.125 61.5284 222.013 61.6809 222.848 61.9858C223.69 62.2841 224.433 62.7481 225.076 63.3778C225.725 64.0076 226.236 64.8097 226.607 65.7841C226.978 66.7519 227.164 67.9053 227.164 69.2443V70.348H214.645V67.9219H223.713C223.707 67.2325 223.558 66.6193 223.266 66.0824C222.974 65.5388 222.567 65.1113 222.043 64.7997C221.526 64.4882 220.923 64.3324 220.233 64.3324C219.498 64.3324 218.851 64.5114 218.294 64.8693C217.738 65.2206 217.303 65.6847 216.992 66.2614C216.687 66.8314 216.531 67.4579 216.525 68.1406V70.2585C216.525 71.1468 216.687 71.9091 217.012 72.5455C217.337 73.1752 217.791 73.6591 218.374 73.9972C218.957 74.3286 219.64 74.4943 220.422 74.4943C220.946 74.4943 221.42 74.4214 221.844 74.2756C222.268 74.1231 222.636 73.901 222.948 73.6094C223.259 73.3177 223.495 72.9564 223.654 72.5256L227.015 72.9034C226.802 73.7917 226.398 74.5672 225.801 75.2301C225.212 75.8864 224.456 76.3968 223.534 76.7614C222.613 77.1193 221.559 77.2983 220.373 77.2983ZM237.835 61.7273V64.5114H229.055V61.7273H237.835ZM231.223 58.0682H234.822V72.4062C234.822 72.8902 234.895 73.2614 235.041 73.5199C235.194 73.7718 235.393 73.9441 235.638 74.0369C235.883 74.1297 236.155 74.1761 236.453 74.1761C236.679 74.1761 236.884 74.1596 237.07 74.1264C237.262 74.0933 237.408 74.0634 237.507 74.0369L238.114 76.8509C237.921 76.9171 237.646 76.9901 237.288 77.0696C236.937 77.1491 236.506 77.1955 235.996 77.2088C235.094 77.2353 234.282 77.0994 233.56 76.8011C232.837 76.4962 232.264 76.0256 231.839 75.3892C231.422 74.7528 231.216 73.9574 231.223 73.0028V58.0682Z" fill="#1E1E1E"/>
<rect x="85" y="376" width="348" height="51" rx="10" fill="#3B82F6"/>
<path d="M195.1 409L193.76 404.88H188.66L187.32 409H185L190.02 394.66H192.42L197.42 409H195.1ZM191.86 398.98C191.82 398.82 191.753 398.6 191.66 398.32C191.58 398.027 191.5 397.727 191.42 397.42C191.34 397.1 191.267 396.833 191.2 396.62C191.147 396.913 191.08 397.207 191 397.5C190.92 397.793 190.847 398.067 190.78 398.32C190.713 398.573 190.653 398.793 190.6 398.98L189.28 403H193.18L191.86 398.98ZM202.421 409.2C201.221 409.2 200.248 408.733 199.501 407.8C198.768 406.867 198.401 405.48 198.401 403.64C198.401 401.787 198.775 400.387 199.521 399.44C200.268 398.493 201.248 398.02 202.461 398.02C202.981 398.02 203.428 398.093 203.801 398.24C204.175 398.373 204.501 398.56 204.781 398.8C205.061 399.04 205.295 399.307 205.481 399.6H205.601C205.575 399.413 205.541 399.147 205.501 398.8C205.475 398.44 205.461 398.12 205.461 397.84V393.8H207.621V409H205.921L205.541 407.56H205.461C205.275 407.867 205.041 408.147 204.761 408.4C204.481 408.64 204.148 408.833 203.761 408.98C203.388 409.127 202.941 409.2 202.421 409.2ZM203.001 407.46C203.935 407.46 204.588 407.173 204.961 406.6C205.348 406.013 205.541 405.14 205.541 403.98V403.66C205.541 402.393 205.361 401.427 205.001 400.76C204.641 400.093 203.968 399.76 202.981 399.76C202.208 399.76 201.621 400.113 201.221 400.82C200.821 401.513 200.621 402.467 200.621 403.68C200.621 404.893 200.821 405.827 201.221 406.48C201.621 407.133 202.215 407.46 203.001 407.46ZM214.121 409.2C212.921 409.2 211.947 408.733 211.201 407.8C210.467 406.867 210.101 405.48 210.101 403.64C210.101 401.787 210.474 400.387 211.221 399.44C211.967 398.493 212.947 398.02 214.161 398.02C214.681 398.02 215.127 398.093 215.501 398.24C215.874 398.373 216.201 398.56 216.481 398.8C216.761 399.04 216.994 399.307 217.181 399.6H217.301C217.274 399.413 217.241 399.147 217.201 398.8C217.174 398.44 217.161 398.12 217.161 397.84V393.8H219.321V409H217.621L217.241 407.56H217.161C216.974 407.867 216.741 408.147 216.461 408.4C216.181 408.64 215.847 408.833 215.461 408.98C215.087 409.127 214.641 409.2 214.121 409.2ZM214.701 407.46C215.634 407.46 216.287 407.173 216.661 406.6C217.047 406.013 217.241 405.14 217.241 403.98V403.66C217.241 402.393 217.061 401.427 216.701 400.76C216.341 400.093 215.667 399.76 214.681 399.76C213.907 399.76 213.321 400.113 212.921 400.82C212.521 401.513 212.321 402.467 212.321 403.68C212.321 404.893 212.521 405.827 212.921 406.48C213.321 407.133 213.914 407.46 214.701 407.46ZM238.683 409H235.963L229.383 397.46H229.303C229.316 397.727 229.329 398.013 229.343 398.32C229.369 398.627 229.389 398.953 229.403 399.3C229.416 399.633 229.429 399.98 229.443 400.34C229.456 400.687 229.469 401.04 229.483 401.4V409H227.463V394.72H230.163L236.723 406.2H236.803C236.789 406 236.776 405.753 236.763 405.46C236.749 405.153 236.736 404.827 236.723 404.48C236.709 404.133 236.696 403.78 236.683 403.42C236.669 403.06 236.663 402.72 236.663 402.4V394.72H238.683V409ZM246.049 398.02C246.943 398.02 247.716 398.22 248.369 398.62C249.023 399.007 249.523 399.567 249.869 400.3C250.229 401.033 250.409 401.9 250.409 402.9V404.06H243.629C243.656 405.167 243.923 406.013 244.429 406.6C244.936 407.187 245.649 407.48 246.569 407.48C247.223 407.48 247.803 407.42 248.309 407.3C248.829 407.167 249.356 406.973 249.889 406.72V408.48C249.383 408.72 248.863 408.9 248.329 409.02C247.809 409.14 247.176 409.2 246.429 409.2C245.456 409.2 244.589 408.993 243.829 408.58C243.069 408.167 242.476 407.553 242.049 406.74C241.623 405.913 241.409 404.9 241.409 403.7C241.409 402.487 241.603 401.46 241.989 400.62C242.376 399.78 242.916 399.14 243.609 398.7C244.316 398.247 245.129 398.02 246.049 398.02ZM246.049 399.66C245.369 399.66 244.823 399.907 244.409 400.4C243.996 400.893 243.756 401.593 243.689 402.5H248.269C248.269 401.94 248.189 401.447 248.029 401.02C247.869 400.593 247.623 400.26 247.289 400.02C246.969 399.78 246.556 399.66 246.049 399.66ZM259.298 403.02C259.231 402.767 259.164 402.507 259.098 402.24C259.031 401.973 258.964 401.72 258.898 401.48C258.844 401.24 258.798 401.013 258.758 400.8C258.718 400.587 258.684 400.4 258.658 400.24H258.578C258.564 400.4 258.531 400.593 258.478 400.82C258.438 401.033 258.391 401.267 258.338 401.52C258.284 401.76 258.224 402.013 258.158 402.28C258.091 402.533 258.024 402.793 257.958 403.06L256.358 408.98H253.877L251.138 398.2H253.318L254.598 403.88C254.691 404.253 254.771 404.633 254.838 405.02C254.918 405.393 254.991 405.753 255.058 406.1C255.124 406.433 255.164 406.727 255.178 406.98H255.258C255.284 406.807 255.318 406.6 255.358 406.36C255.411 406.107 255.464 405.847 255.518 405.58C255.571 405.313 255.624 405.053 255.678 404.8C255.744 404.547 255.804 404.327 255.858 404.14L257.458 398.2H259.838L261.378 404.14C261.458 404.407 261.538 404.713 261.618 405.06C261.698 405.407 261.771 405.747 261.838 406.08C261.904 406.413 261.944 406.707 261.957 406.96H262.018C262.044 406.733 262.084 406.453 262.138 406.12C262.204 405.787 262.284 405.427 262.378 405.04C262.471 404.653 262.558 404.267 262.638 403.88L263.958 398.2H266.098L263.338 408.98H260.818L259.298 403.02ZM276.772 394.72C278.519 394.72 279.792 395.1 280.592 395.86C281.405 396.607 281.812 397.653 281.812 399C281.812 399.6 281.719 400.173 281.532 400.72C281.359 401.267 281.065 401.76 280.652 402.2C280.252 402.627 279.712 402.967 279.032 403.22C278.352 403.46 277.519 403.58 276.532 403.58H275.132V409H272.912V394.72H276.772ZM276.652 396.54H275.132V401.76H276.292C277.012 401.76 277.612 401.673 278.092 401.5C278.572 401.313 278.932 401.027 279.172 400.64C279.425 400.24 279.552 399.72 279.552 399.08C279.552 398.227 279.319 397.593 278.852 397.18C278.385 396.753 277.652 396.54 276.652 396.54ZM293.295 403.6C293.295 404.493 293.182 405.287 292.955 405.98C292.728 406.673 292.402 407.26 291.975 407.74C291.562 408.22 291.055 408.587 290.455 408.84C289.855 409.08 289.182 409.2 288.435 409.2C287.755 409.2 287.122 409.08 286.535 408.84C285.948 408.587 285.442 408.22 285.015 407.74C284.588 407.26 284.255 406.673 284.015 405.98C283.788 405.287 283.675 404.487 283.675 403.58C283.675 402.393 283.868 401.387 284.255 400.56C284.642 399.733 285.195 399.107 285.915 398.68C286.648 398.24 287.515 398.02 288.515 398.02C289.448 398.02 290.275 398.24 290.995 398.68C291.715 399.107 292.275 399.733 292.675 400.56C293.088 401.387 293.295 402.4 293.295 403.6ZM285.915 403.6C285.915 404.4 286.002 405.093 286.175 405.68C286.362 406.253 286.642 406.693 287.015 407C287.402 407.307 287.888 407.46 288.475 407.46C289.075 407.46 289.562 407.307 289.935 407C290.322 406.693 290.602 406.253 290.775 405.68C290.962 405.093 291.055 404.4 291.055 403.6C291.055 402.773 290.962 402.08 290.775 401.52C290.588 400.96 290.308 400.533 289.935 400.24C289.562 399.933 289.068 399.78 288.455 399.78C287.562 399.78 286.915 400.113 286.515 400.78C286.115 401.447 285.915 402.387 285.915 403.6ZM299.938 409.2C298.992 409.2 298.158 409.007 297.438 408.62C296.732 408.233 296.178 407.633 295.778 406.82C295.392 405.993 295.198 404.947 295.198 403.68C295.198 402.347 295.412 401.267 295.838 400.44C296.265 399.613 296.845 399.007 297.578 398.62C298.312 398.22 299.152 398.02 300.098 398.02C300.658 398.02 301.192 398.087 301.698 398.22C302.218 398.34 302.645 398.48 302.978 398.64L302.318 400.34C301.985 400.207 301.625 400.087 301.238 399.98C300.852 399.873 300.485 399.82 300.138 399.82C299.525 399.82 299.018 399.967 298.618 400.26C298.232 400.54 297.938 400.967 297.738 401.54C297.538 402.1 297.438 402.807 297.438 403.66C297.438 404.473 297.538 405.16 297.738 405.72C297.938 406.28 298.232 406.707 298.618 407C299.018 407.28 299.498 407.42 300.058 407.42C300.605 407.42 301.092 407.353 301.518 407.22C301.958 407.087 302.365 406.913 302.738 406.7V408.54C302.365 408.767 301.958 408.933 301.518 409.04C301.078 409.147 300.552 409.2 299.938 409.2ZM307.235 401.4C307.235 401.68 307.221 402 307.195 402.36C307.168 402.72 307.141 403.053 307.115 403.36H307.195C307.275 403.227 307.381 403.067 307.515 402.88C307.661 402.68 307.808 402.48 307.955 402.28C308.115 402.08 308.261 401.907 308.395 401.76L311.415 398.22H313.895L309.875 402.84L314.155 409H311.595L308.395 404.18L307.235 405.22V409H305.075V393.8H307.235V401.4ZM319.858 398.02C320.751 398.02 321.524 398.22 322.178 398.62C322.831 399.007 323.331 399.567 323.678 400.3C324.038 401.033 324.218 401.9 324.218 402.9V404.06H317.438C317.464 405.167 317.731 406.013 318.238 406.6C318.744 407.187 319.458 407.48 320.378 407.48C321.031 407.48 321.611 407.42 322.118 407.3C322.638 407.167 323.164 406.973 323.698 406.72V408.48C323.191 408.72 322.671 408.9 322.138 409.02C321.618 409.14 320.984 409.2 320.238 409.2C319.264 409.2 318.398 408.993 317.638 408.58C316.878 408.167 316.284 407.553 315.858 406.74C315.431 405.913 315.218 404.9 315.218 403.7C315.218 402.487 315.411 401.46 315.798 400.62C316.184 399.78 316.724 399.14 317.418 398.7C318.124 398.247 318.938 398.02 319.858 398.02ZM319.858 399.66C319.178 399.66 318.631 399.907 318.218 400.4C317.804 400.893 317.564 401.593 317.498 402.5H322.078C322.078 401.94 321.998 401.447 321.838 401.02C321.678 400.593 321.431 400.26 321.098 400.02C320.778 399.78 320.364 399.66 319.858 399.66ZM330.457 407.48C330.737 407.48 331.011 407.453 331.277 407.4C331.544 407.347 331.777 407.287 331.977 407.22V408.82C331.751 408.927 331.451 409.013 331.077 409.08C330.717 409.16 330.337 409.2 329.937 409.2C329.377 409.2 328.864 409.1 328.397 408.9C327.931 408.7 327.557 408.353 327.277 407.86C326.997 407.367 326.857 406.68 326.857 405.8V399.84H325.477V398.88L326.957 398.08L327.697 395.8H329.037V398.22H331.897V399.84H329.037V405.76C329.037 406.347 329.171 406.78 329.437 407.06C329.704 407.34 330.044 407.48 330.457 407.48Z" fill="white"/>
<path d="M378.339 66.4531C378.273 65.8329 377.994 65.3499 377.501 65.0043C377.014 64.6586 376.379 64.4858 375.598 64.4858C375.049 64.4858 374.578 64.5687 374.185 64.7344C373.792 64.9001 373.491 65.125 373.283 65.4091C373.074 65.6932 372.968 66.0175 372.963 66.3821C372.963 66.6851 373.032 66.9479 373.169 67.1705C373.311 67.393 373.503 67.5824 373.744 67.7386C373.986 67.8902 374.253 68.018 374.547 68.1222C374.84 68.2263 375.136 68.3139 375.435 68.3849L376.798 68.7259C377.348 68.8537 377.875 69.0265 378.382 69.2443C378.893 69.4621 379.35 69.7367 379.753 70.0682C380.16 70.3996 380.482 70.7997 380.719 71.2685C380.955 71.7372 381.074 72.2865 381.074 72.9162C381.074 73.7685 380.856 74.5189 380.42 75.1676C379.985 75.8116 379.355 76.3158 378.531 76.6804C377.712 77.0402 376.72 77.2202 375.555 77.2202C374.424 77.2202 373.441 77.045 372.608 76.6946C371.779 76.3442 371.131 75.8329 370.662 75.1605C370.198 74.4882 369.947 73.669 369.909 72.7031H372.501C372.539 73.2098 372.696 73.6312 372.97 73.9673C373.245 74.3035 373.602 74.5545 374.043 74.7202C374.488 74.8859 374.985 74.9688 375.534 74.9688C376.107 74.9688 376.609 74.8835 377.04 74.7131C377.475 74.5379 377.816 74.2964 378.062 73.9886C378.309 73.6761 378.434 73.3116 378.439 72.8949C378.434 72.5161 378.323 72.2036 378.105 71.9574C377.887 71.7064 377.582 71.4981 377.189 71.3324C376.801 71.1619 376.346 71.0104 375.825 70.8778L374.17 70.4517C372.973 70.1439 372.026 69.6776 371.33 69.0526C370.638 68.4228 370.293 67.5871 370.293 66.5455C370.293 65.6884 370.525 64.938 370.989 64.294C371.457 63.6501 372.094 63.1506 372.899 62.7955C373.704 62.4356 374.616 62.2557 375.634 62.2557C376.666 62.2557 377.57 62.4356 378.347 62.7955C379.128 63.1506 379.741 63.6454 380.186 64.2798C380.631 64.9096 380.861 65.634 380.875 66.4531H378.339ZM388.139 77.2131C387.045 77.2131 386.1 76.9858 385.305 76.5312C384.514 76.072 383.906 75.4233 383.48 74.5852C383.054 73.7424 382.841 72.7505 382.841 71.6094C382.841 70.4872 383.054 69.5024 383.48 68.6548C383.911 67.8026 384.512 67.1397 385.284 66.6662C386.056 66.188 386.962 65.9489 388.004 65.9489C388.676 65.9489 389.311 66.0578 389.907 66.2756C390.509 66.4886 391.039 66.8201 391.498 67.2699C391.962 67.7197 392.327 68.2926 392.592 68.9886C392.857 69.6799 392.99 70.5038 392.99 71.4602V72.2486H384.048V70.5156H390.525C390.52 70.0232 390.414 69.5852 390.206 69.2017C389.997 68.8134 389.706 68.508 389.332 68.2855C388.963 68.063 388.532 67.9517 388.039 67.9517C387.514 67.9517 387.052 68.0795 386.654 68.3352C386.257 68.5862 385.947 68.9176 385.724 69.3295C385.506 69.7367 385.395 70.1842 385.39 70.6719V72.1847C385.39 72.8191 385.506 73.3636 385.738 73.8182C385.97 74.268 386.295 74.6136 386.711 74.8551C387.128 75.0919 387.616 75.2102 388.174 75.2102C388.548 75.2102 388.887 75.1581 389.19 75.054C389.493 74.9451 389.756 74.7865 389.978 74.5781C390.201 74.3698 390.369 74.1117 390.483 73.804L392.883 74.0739C392.732 74.7083 392.443 75.2623 392.017 75.7358C391.595 76.2045 391.056 76.5691 390.397 76.8295C389.739 77.0852 388.986 77.2131 388.139 77.2131ZM399.994 77.2131C398.901 77.2131 397.956 76.9858 397.161 76.5312C396.37 76.072 395.761 75.4233 395.335 74.5852C394.909 73.7424 394.696 72.7505 394.696 71.6094C394.696 70.4872 394.909 69.5024 395.335 68.6548C395.766 67.8026 396.367 67.1397 397.139 66.6662C397.911 66.188 398.818 65.9489 399.859 65.9489C400.532 65.9489 401.166 66.0578 401.763 66.2756C402.364 66.4886 402.894 66.8201 403.354 67.2699C403.818 67.7197 404.182 68.2926 404.447 68.9886C404.713 69.6799 404.845 70.5038 404.845 71.4602V72.2486H395.903V70.5156H402.381C402.376 70.0232 402.269 69.5852 402.061 69.2017C401.853 68.8134 401.562 68.508 401.188 68.2855C400.818 68.063 400.387 67.9517 399.895 67.9517C399.369 67.9517 398.908 68.0795 398.51 68.3352C398.112 68.5862 397.802 68.9176 397.58 69.3295C397.362 69.7367 397.25 70.1842 397.246 70.6719V72.1847C397.246 72.8191 397.362 73.3636 397.594 73.8182C397.826 74.268 398.15 74.6136 398.567 74.8551C398.983 75.0919 399.471 75.2102 400.03 75.2102C400.404 75.2102 400.742 75.1581 401.045 75.054C401.348 74.9451 401.611 74.7865 401.834 74.5781C402.056 74.3698 402.224 74.1117 402.338 73.804L404.739 74.0739C404.587 74.7083 404.298 75.2623 403.872 75.7358C403.451 76.2045 402.911 76.5691 402.253 76.8295C401.595 77.0852 400.842 77.2131 399.994 77.2131ZM415.12 77.2202C414.429 77.2202 413.806 77.0971 413.252 76.8509C412.703 76.5999 412.268 76.2306 411.946 75.7429C411.628 75.2552 411.47 74.6539 411.47 73.9389C411.47 73.3234 411.583 72.8144 411.811 72.4119C412.038 72.0095 412.348 71.6875 412.741 71.446C413.134 71.2045 413.577 71.0223 414.069 70.8991C414.566 70.7713 415.08 70.679 415.61 70.6222C416.25 70.5559 416.768 70.4967 417.166 70.4446C417.564 70.3878 417.852 70.3026 418.032 70.1889C418.217 70.0705 418.309 69.8883 418.309 69.642V69.5994C418.309 69.0644 418.151 68.6501 417.833 68.3565C417.516 68.063 417.059 67.9162 416.463 67.9162C415.833 67.9162 415.333 68.0535 414.964 68.3281C414.6 68.6027 414.353 68.9271 414.225 69.3011L411.825 68.9602C412.014 68.2973 412.327 67.7434 412.762 67.2983C413.198 66.8485 413.731 66.5123 414.36 66.2898C414.99 66.0625 415.686 65.9489 416.449 65.9489C416.974 65.9489 417.497 66.0104 418.018 66.1335C418.539 66.2566 419.015 66.4602 419.446 66.7443C419.877 67.0237 420.222 67.4048 420.483 67.8878C420.748 68.3707 420.88 68.9744 420.88 69.6989V77H418.409V75.5014H418.324C418.167 75.8045 417.947 76.0885 417.663 76.3537C417.384 76.6141 417.031 76.8248 416.605 76.9858C416.183 77.142 415.689 77.2202 415.12 77.2202ZM415.788 75.331C416.304 75.331 416.752 75.2292 417.13 75.0256C417.509 74.8172 417.8 74.5426 418.004 74.2017C418.212 73.8608 418.316 73.4891 418.316 73.0866V71.8011C418.236 71.8674 418.099 71.929 417.904 71.9858C417.715 72.0426 417.502 72.0923 417.265 72.1349C417.029 72.1776 416.794 72.2154 416.562 72.2486C416.33 72.2817 416.129 72.3101 415.958 72.3338C415.575 72.3859 415.232 72.4711 414.929 72.5895C414.626 72.7079 414.386 72.8736 414.211 73.0866C414.036 73.295 413.949 73.5649 413.949 73.8963C413.949 74.3698 414.121 74.7273 414.467 74.9688C414.813 75.2102 415.253 75.331 415.788 75.331ZM426.037 62.4545V77H423.466V62.4545H426.037ZM431.251 62.4545V77H428.68V62.4545H431.251Z" fill="#64748B"/>
<path d="M120.874 177.486L116.75 172.219L114.682 177.486H120.874Z" fill="#F4900C"/>
<path d="M122.966 171.074L119.319 177.957H126.611L122.966 171.074Z" fill="#F4900C"/>
<path d="M125.126 177.486L129.25 172.219L131.318 177.486H125.126Z" fill="#F4900C"/>
<path d="M128.927 176.439L126.271 169.957L123.004 176.439L123 176.441L122.996 176.439L119.729 169.957L117.073 176.439C115.332 174.018 113.711 172.468 113.711 172.468C113.711 172.468 114.667 179.528 114.667 186.333H131.333C131.333 179.528 132.289 172.468 132.289 172.468C132.289 172.468 130.668 174.018 128.927 176.439Z" fill="#FFCC4D"/>
<path d="M122.976 182.271C124.108 182.271 125.025 181.354 125.025 180.222C125.025 179.091 124.108 178.173 122.976 178.173C121.845 178.173 120.927 179.091 120.927 180.222C120.927 181.354 121.845 182.271 122.976 182.271Z" fill="#5C913B"/>
<path d="M127.702 181.562C128.442 181.562 129.042 180.962 129.042 180.222C129.042 179.482 128.442 178.882 127.702 178.882C126.962 178.882 126.362 179.482 126.362 180.222C126.362 180.962 126.962 181.562 127.702 181.562Z" fill="#981CEB"/>
<path d="M131.251 181.326C131.861 181.326 132.354 180.832 132.354 180.222C132.354 179.613 131.861 179.119 131.251 179.119C130.642 179.119 130.148 179.613 130.148 180.222C130.148 180.832 130.642 181.326 131.251 181.326Z" fill="#DD2E44"/>
<path d="M118.25 181.562C118.99 181.562 119.59 180.962 119.59 180.222C119.59 179.482 118.99 178.882 118.25 178.882C117.51 178.882 116.91 179.482 116.91 180.222C116.91 180.962 117.51 181.562 118.25 181.562Z" fill="#981CEB"/>
<path d="M114.701 181.326C115.31 181.326 115.804 180.832 115.804 180.222C115.804 179.613 115.31 179.119 114.701 179.119C114.091 179.119 113.597 179.613 113.597 180.222C113.597 180.832 114.091 181.326 114.701 181.326Z" fill="#DD2E44"/>
<path d="M131.333 186.889H114.667C114.519 186.889 114.378 186.83 114.274 186.726C114.17 186.622 114.111 186.481 114.111 186.333C114.111 186.186 114.17 186.045 114.274 185.94C114.378 185.836 114.519 185.778 114.667 185.778H131.333C131.481 185.778 131.622 185.836 131.726 185.94C131.83 186.045 131.889 186.186 131.889 186.333C131.889 186.481 131.83 186.622 131.726 186.726C131.622 186.83 131.481 186.889 131.333 186.889ZM131.333 184.952H114.667C114.519 184.952 114.378 184.894 114.274 184.789C114.17 184.685 114.111 184.544 114.111 184.397C114.111 184.249 114.17 184.108 114.274 184.004C114.378 183.9 114.519 183.841 114.667 183.841H131.333C131.481 183.841 131.622 183.9 131.726 184.004C131.83 184.108 131.889 184.249 131.889 184.397C131.889 184.544 131.83 184.685 131.726 184.789C131.622 184.894 131.481 184.952 131.333 184.952Z" fill="#FFAC33"/>
<path d="M113.804 173.249C114.236 173.249 114.586 172.9 114.586 172.468C114.586 172.036 114.236 171.686 113.804 171.686C113.372 171.686 113.022 172.036 113.022 172.468C113.022 172.9 113.372 173.249 113.804 173.249Z" fill="#FFCC4D"/>
<path d="M116.75 172.881C117.116 172.881 117.412 172.585 117.412 172.219C117.412 171.853 117.116 171.557 116.75 171.557C116.384 171.557 116.088 171.853 116.088 172.219C116.088 172.585 116.384 172.881 116.75 172.881Z" fill="#F4900C"/>
<path d="M119.729 170.948C120.277 170.948 120.721 170.505 120.721 169.957C120.721 169.41 120.277 168.966 119.729 168.966C119.182 168.966 118.738 169.41 118.738 169.957C118.738 170.505 119.182 170.948 119.729 170.948Z" fill="#FFCC4D"/>
<path d="M132.196 173.249C132.628 173.249 132.978 172.9 132.978 172.468C132.978 172.036 132.628 171.686 132.196 171.686C131.764 171.686 131.414 172.036 131.414 172.468C131.414 172.9 131.764 173.249 132.196 173.249Z" fill="#FFCC4D"/>
<path d="M129.25 172.881C129.616 172.881 129.912 172.585 129.912 172.219C129.912 171.853 129.616 171.557 129.25 171.557C128.884 171.557 128.588 171.853 128.588 172.219C128.588 172.585 128.884 172.881 129.25 172.881Z" fill="#F4900C"/>
<path d="M126.271 170.948C126.818 170.948 127.262 170.505 127.262 169.957C127.262 169.41 126.818 168.966 126.271 168.966C125.723 168.966 125.279 169.41 125.279 169.957C125.279 170.505 125.723 170.948 126.271 170.948Z" fill="#FFCC4D"/>
<path d="M122.966 172.066C123.513 172.066 123.957 171.622 123.957 171.074C123.957 170.527 123.513 170.083 122.966 170.083C122.418 170.083 121.974 170.527 121.974 171.074C121.974 171.622 122.418 172.066 122.966 172.066Z" fill="#F4900C"/>
<rect x="97" y="96" width="76" height="23" rx="11.5" fill="#3B82F6"/>
<path d="M127.261 113H125.398L129.585 101.364H131.614L135.801 113H133.938L130.648 103.477H130.557L127.261 113ZM127.574 108.443H133.619V109.92H127.574V108.443ZM139.044 101.364V113H137.345V101.364H139.044ZM143.028 101.364V113H141.33V101.364H143.028Z" fill="white"/>
<path d="M224.034 101.364V113H222.278V101.364H224.034ZM228.153 107.818V113H226.455V104.273H228.085V105.693H228.193C228.394 105.231 228.708 104.86 229.136 104.58C229.568 104.299 230.112 104.159 230.767 104.159C231.362 104.159 231.883 104.284 232.33 104.534C232.777 104.78 233.123 105.148 233.369 105.636C233.616 106.125 233.739 106.729 233.739 107.449V113H232.04V107.653C232.04 107.021 231.875 106.527 231.545 106.17C231.216 105.811 230.763 105.631 230.188 105.631C229.794 105.631 229.443 105.716 229.136 105.886C228.833 106.057 228.593 106.307 228.415 106.636C228.241 106.962 228.153 107.356 228.153 107.818ZM243.17 104.273L240.006 113H238.188L235.017 104.273H236.841L239.051 110.989H239.142L241.347 104.273H243.17ZM248.232 113.176C247.372 113.176 246.631 112.992 246.01 112.625C245.393 112.254 244.915 111.733 244.578 111.062C244.245 110.388 244.078 109.598 244.078 108.693C244.078 107.799 244.245 107.011 244.578 106.33C244.915 105.648 245.385 105.116 245.987 104.733C246.593 104.35 247.302 104.159 248.112 104.159C248.605 104.159 249.082 104.241 249.544 104.403C250.006 104.566 250.421 104.822 250.788 105.17C251.156 105.519 251.446 105.972 251.658 106.528C251.87 107.081 251.976 107.754 251.976 108.545V109.148H245.038V107.875H250.311C250.311 107.428 250.22 107.032 250.038 106.688C249.857 106.339 249.601 106.064 249.271 105.864C248.946 105.663 248.563 105.562 248.124 105.562C247.646 105.562 247.23 105.68 246.874 105.915C246.521 106.146 246.249 106.449 246.055 106.824C245.866 107.195 245.771 107.598 245.771 108.034V109.028C245.771 109.612 245.874 110.108 246.078 110.517C246.286 110.926 246.576 111.239 246.947 111.455C247.319 111.667 247.752 111.773 248.249 111.773C248.571 111.773 248.864 111.727 249.129 111.636C249.394 111.542 249.624 111.402 249.817 111.216C250.01 111.03 250.158 110.801 250.26 110.528L251.868 110.818C251.739 111.292 251.508 111.706 251.175 112.062C250.845 112.415 250.43 112.689 249.93 112.886C249.434 113.08 248.868 113.176 248.232 113.176ZM260.401 106.403L258.861 106.676C258.796 106.479 258.694 106.292 258.554 106.114C258.418 105.936 258.232 105.79 257.997 105.676C257.762 105.562 257.469 105.506 257.116 105.506C256.635 105.506 256.234 105.614 255.912 105.83C255.59 106.042 255.429 106.316 255.429 106.653C255.429 106.945 255.537 107.18 255.753 107.358C255.969 107.536 256.317 107.682 256.798 107.795L258.185 108.114C258.988 108.299 259.586 108.585 259.98 108.972C260.374 109.358 260.571 109.86 260.571 110.477C260.571 111 260.42 111.466 260.116 111.875C259.817 112.28 259.399 112.598 258.861 112.83C258.327 113.061 257.707 113.176 257.003 113.176C256.026 113.176 255.228 112.968 254.611 112.551C253.993 112.131 253.615 111.534 253.474 110.761L255.116 110.511C255.219 110.939 255.429 111.263 255.747 111.483C256.065 111.699 256.48 111.807 256.991 111.807C257.548 111.807 257.993 111.691 258.327 111.46C258.66 111.225 258.827 110.939 258.827 110.602C258.827 110.33 258.724 110.1 258.52 109.915C258.319 109.729 258.01 109.589 257.594 109.494L256.116 109.17C255.302 108.985 254.7 108.689 254.31 108.284C253.923 107.879 253.73 107.366 253.73 106.744C253.73 106.229 253.874 105.778 254.162 105.392C254.45 105.006 254.848 104.705 255.355 104.489C255.863 104.269 256.444 104.159 257.099 104.159C258.043 104.159 258.785 104.364 259.327 104.773C259.868 105.178 260.226 105.722 260.401 106.403ZM266.513 104.273V105.636H261.746V104.273H266.513ZM263.024 102.182H264.723V110.438C264.723 110.767 264.772 111.015 264.871 111.182C264.969 111.345 265.096 111.456 265.251 111.517C265.411 111.574 265.583 111.602 265.768 111.602C265.905 111.602 266.024 111.593 266.126 111.574C266.229 111.555 266.308 111.54 266.365 111.528L266.672 112.932C266.573 112.97 266.433 113.008 266.251 113.045C266.07 113.087 265.842 113.11 265.57 113.114C265.123 113.121 264.706 113.042 264.32 112.875C263.933 112.708 263.621 112.451 263.382 112.102C263.143 111.754 263.024 111.316 263.024 110.79V102.182ZM268.392 113V104.273H270.023V105.693H270.131C270.313 105.212 270.61 104.837 271.023 104.568C271.436 104.295 271.93 104.159 272.506 104.159C273.089 104.159 273.578 104.295 273.972 104.568C274.369 104.841 274.663 105.216 274.852 105.693H274.943C275.152 105.227 275.483 104.856 275.938 104.58C276.392 104.299 276.934 104.159 277.562 104.159C278.354 104.159 279 104.407 279.5 104.903C280.004 105.4 280.256 106.148 280.256 107.148V113H278.557V107.307C278.557 106.716 278.396 106.288 278.074 106.023C277.752 105.758 277.367 105.625 276.92 105.625C276.367 105.625 275.938 105.795 275.631 106.136C275.324 106.473 275.17 106.907 275.17 107.438V113H273.477V107.199C273.477 106.725 273.33 106.345 273.034 106.057C272.739 105.769 272.354 105.625 271.881 105.625C271.559 105.625 271.261 105.71 270.989 105.881C270.72 106.047 270.502 106.28 270.335 106.58C270.172 106.879 270.091 107.225 270.091 107.619V113H268.392ZM286.294 113.176C285.434 113.176 284.694 112.992 284.072 112.625C283.455 112.254 282.978 111.733 282.641 111.062C282.307 110.388 282.141 109.598 282.141 108.693C282.141 107.799 282.307 107.011 282.641 106.33C282.978 105.648 283.447 105.116 284.05 104.733C284.656 104.35 285.364 104.159 286.175 104.159C286.667 104.159 287.144 104.241 287.607 104.403C288.069 104.566 288.483 104.822 288.851 105.17C289.218 105.519 289.508 105.972 289.72 106.528C289.932 107.081 290.038 107.754 290.038 108.545V109.148H283.101V107.875H288.374C288.374 107.428 288.283 107.032 288.101 106.688C287.919 106.339 287.663 106.064 287.334 105.864C287.008 105.663 286.625 105.562 286.186 105.562C285.709 105.562 285.292 105.68 284.936 105.915C284.584 106.146 284.311 106.449 284.118 106.824C283.929 107.195 283.834 107.598 283.834 108.034V109.028C283.834 109.612 283.936 110.108 284.141 110.517C284.349 110.926 284.639 111.239 285.01 111.455C285.381 111.667 285.815 111.773 286.311 111.773C286.633 111.773 286.927 111.727 287.192 111.636C287.457 111.542 287.686 111.402 287.879 111.216C288.072 111.03 288.22 110.801 288.322 110.528L289.93 110.818C289.802 111.292 289.571 111.706 289.237 112.062C288.908 112.415 288.493 112.689 287.993 112.886C287.497 113.08 286.93 113.176 286.294 113.176ZM293.622 107.818V113H291.923V104.273H293.554V105.693H293.662C293.863 105.231 294.177 104.86 294.605 104.58C295.037 104.299 295.58 104.159 296.236 104.159C296.83 104.159 297.351 104.284 297.798 104.534C298.245 104.78 298.592 105.148 298.838 105.636C299.084 106.125 299.207 106.729 299.207 107.449V113H297.509V107.653C297.509 107.021 297.344 106.527 297.014 106.17C296.685 105.811 296.232 105.631 295.656 105.631C295.262 105.631 294.912 105.716 294.605 105.886C294.302 106.057 294.062 106.307 293.884 106.636C293.709 106.962 293.622 107.356 293.622 107.818ZM305.56 104.273V105.636H300.793V104.273H305.56ZM302.071 102.182H303.77V110.438C303.77 110.767 303.819 111.015 303.918 111.182C304.016 111.345 304.143 111.456 304.298 111.517C304.457 111.574 304.63 111.602 304.815 111.602C304.952 111.602 305.071 111.593 305.173 111.574C305.276 111.555 305.355 111.54 305.412 111.528L305.719 112.932C305.62 112.97 305.48 113.008 305.298 113.045C305.116 113.087 304.889 113.11 304.616 113.114C304.17 113.121 303.753 113.042 303.366 112.875C302.98 112.708 302.668 112.451 302.429 112.102C302.19 111.754 302.071 111.316 302.071 110.79V102.182ZM313.838 106.403L312.298 106.676C312.234 106.479 312.132 106.292 311.991 106.114C311.855 105.936 311.67 105.79 311.435 105.676C311.2 105.562 310.906 105.506 310.554 105.506C310.073 105.506 309.671 105.614 309.349 105.83C309.027 106.042 308.866 106.316 308.866 106.653C308.866 106.945 308.974 107.18 309.19 107.358C309.406 107.536 309.755 107.682 310.236 107.795L311.622 108.114C312.425 108.299 313.024 108.585 313.418 108.972C313.812 109.358 314.009 109.86 314.009 110.477C314.009 111 313.857 111.466 313.554 111.875C313.255 112.28 312.836 112.598 312.298 112.83C311.764 113.061 311.145 113.176 310.44 113.176C309.463 113.176 308.666 112.968 308.048 112.551C307.431 112.131 307.052 111.534 306.912 110.761L308.554 110.511C308.656 110.939 308.866 111.263 309.185 111.483C309.503 111.699 309.918 111.807 310.429 111.807C310.986 111.807 311.431 111.691 311.764 111.46C312.098 111.225 312.264 110.939 312.264 110.602C312.264 110.33 312.162 110.1 311.957 109.915C311.757 109.729 311.448 109.589 311.031 109.494L309.554 109.17C308.74 108.985 308.137 108.689 307.747 108.284C307.361 107.879 307.168 107.366 307.168 106.744C307.168 106.229 307.312 105.778 307.599 105.392C307.887 105.006 308.285 104.705 308.793 104.489C309.3 104.269 309.882 104.159 310.537 104.159C311.48 104.159 312.223 104.364 312.764 104.773C313.306 105.178 313.664 105.722 313.838 106.403Z" fill="#CBD5E1"/>
<rect x="193.5" y="96.5" width="149" height="22" rx="11" stroke="#CBD5E1"/>
<path d="M385.778 113V101.364H392.994V102.875H387.534V106.42H392.477V107.926H387.534V113H385.778ZM398.138 113.176C397.278 113.176 396.537 112.992 395.916 112.625C395.299 112.254 394.821 111.733 394.484 111.062C394.151 110.388 393.984 109.598 393.984 108.693C393.984 107.799 394.151 107.011 394.484 106.33C394.821 105.648 395.291 105.116 395.893 104.733C396.5 104.35 397.208 104.159 398.018 104.159C398.511 104.159 398.988 104.241 399.45 104.403C399.912 104.566 400.327 104.822 400.695 105.17C401.062 105.519 401.352 105.972 401.564 106.528C401.776 107.081 401.882 107.754 401.882 108.545V109.148H394.945V107.875H400.217C400.217 107.428 400.126 107.032 399.945 106.688C399.763 106.339 399.507 106.064 399.178 105.864C398.852 105.663 398.469 105.562 398.03 105.562C397.553 105.562 397.136 105.68 396.78 105.915C396.428 106.146 396.155 106.449 395.962 106.824C395.772 107.195 395.678 107.598 395.678 108.034V109.028C395.678 109.612 395.78 110.108 395.984 110.517C396.193 110.926 396.482 111.239 396.854 111.455C397.225 111.667 397.659 111.773 398.155 111.773C398.477 111.773 398.77 111.727 399.036 111.636C399.301 111.542 399.53 111.402 399.723 111.216C399.916 111.03 400.064 110.801 400.166 110.528L401.774 110.818C401.645 111.292 401.414 111.706 401.081 112.062C400.751 112.415 400.337 112.689 399.837 112.886C399.34 113.08 398.774 113.176 398.138 113.176ZM407.528 113.176C406.669 113.176 405.928 112.992 405.307 112.625C404.689 112.254 404.212 111.733 403.875 111.062C403.542 110.388 403.375 109.598 403.375 108.693C403.375 107.799 403.542 107.011 403.875 106.33C404.212 105.648 404.682 105.116 405.284 104.733C405.89 104.35 406.598 104.159 407.409 104.159C407.902 104.159 408.379 104.241 408.841 104.403C409.303 104.566 409.718 104.822 410.085 105.17C410.453 105.519 410.742 105.972 410.955 106.528C411.167 107.081 411.273 107.754 411.273 108.545V109.148H404.335V107.875H409.608C409.608 107.428 409.517 107.032 409.335 106.688C409.153 106.339 408.898 106.064 408.568 105.864C408.242 105.663 407.86 105.562 407.42 105.562C406.943 105.562 406.527 105.68 406.17 105.915C405.818 106.146 405.545 106.449 405.352 106.824C405.163 107.195 405.068 107.598 405.068 108.034V109.028C405.068 109.612 405.17 110.108 405.375 110.517C405.583 110.926 405.873 111.239 406.244 111.455C406.616 111.667 407.049 111.773 407.545 111.773C407.867 111.773 408.161 111.727 408.426 111.636C408.691 111.542 408.92 111.402 409.114 111.216C409.307 111.03 409.455 110.801 409.557 110.528L411.165 110.818C411.036 111.292 410.805 111.706 410.472 112.062C410.142 112.415 409.727 112.689 409.227 112.886C408.731 113.08 408.165 113.176 407.528 113.176Z" fill="#CBD5E1"/>
<path d="M362 107C362 100.373 367.373 95 374 95H427V97H374C368.477 97 364 101.477 364 107H362ZM427 119H374C367.373 119 362 113.627 362 107H364C364 112.523 368.477 117 374 117H427V119ZM374 119C367.373 119 362 113.627 362 107C362 100.373 367.373 95 374 95V97C368.477 97 364 101.477 364 107C364 112.523 368.477 117 374 117V119ZM427 96V118V96Z" fill="#CBD5E1" mask="url(#path-29-inside-1_10_84)"/>
<path d="M107.276 203.273V212H105.959V203.273H107.276ZM110.365 208.114V212H109.091V205.455H110.314V206.52H110.395C110.545 206.173 110.781 205.895 111.102 205.685C111.426 205.474 111.834 205.369 112.325 205.369C112.771 205.369 113.162 205.463 113.497 205.651C113.832 205.835 114.092 206.111 114.277 206.477C114.462 206.844 114.554 207.297 114.554 207.837V212H113.28V207.99C113.28 207.516 113.156 207.145 112.909 206.878C112.662 206.608 112.322 206.473 111.891 206.473C111.595 206.473 111.332 206.537 111.102 206.665C110.875 206.793 110.695 206.98 110.561 207.227C110.43 207.472 110.365 207.767 110.365 208.114ZM121.628 205.455L119.254 212H117.891L115.513 205.455H116.881L118.538 210.491H118.607L120.26 205.455H121.628ZM125.424 212.132C124.779 212.132 124.223 211.994 123.757 211.719C123.294 211.44 122.936 211.05 122.684 210.547C122.434 210.041 122.309 209.449 122.309 208.77C122.309 208.099 122.434 207.509 122.684 206.997C122.936 206.486 123.289 206.087 123.74 205.8C124.195 205.513 124.726 205.369 125.334 205.369C125.703 205.369 126.061 205.43 126.408 205.553C126.755 205.675 127.066 205.866 127.341 206.128C127.617 206.389 127.834 206.729 127.993 207.146C128.152 207.561 128.232 208.065 128.232 208.659V209.111H123.029V208.156H126.983C126.983 207.821 126.915 207.524 126.779 207.266C126.642 207.004 126.451 206.798 126.203 206.648C125.959 206.497 125.672 206.422 125.343 206.422C124.985 206.422 124.672 206.51 124.405 206.686C124.141 206.859 123.936 207.087 123.792 207.368C123.65 207.646 123.578 207.949 123.578 208.276V209.021C123.578 209.459 123.655 209.831 123.809 210.138C123.965 210.445 124.182 210.679 124.461 210.841C124.739 211 125.064 211.08 125.436 211.08C125.678 211.08 125.898 211.045 126.097 210.977C126.296 210.906 126.468 210.801 126.613 210.662C126.757 210.523 126.868 210.351 126.945 210.146L128.151 210.364C128.054 210.719 127.881 211.03 127.631 211.297C127.384 211.561 127.073 211.767 126.698 211.915C126.326 212.06 125.901 212.132 125.424 212.132ZM134.55 207.053L133.396 207.257C133.347 207.109 133.271 206.969 133.165 206.835C133.063 206.702 132.924 206.592 132.748 206.507C132.572 206.422 132.352 206.379 132.087 206.379C131.727 206.379 131.425 206.46 131.184 206.622C130.942 206.781 130.822 206.987 130.822 207.24C130.822 207.459 130.903 207.635 131.065 207.768C131.227 207.902 131.488 208.011 131.849 208.097L132.888 208.335C133.491 208.474 133.94 208.689 134.235 208.979C134.531 209.268 134.678 209.645 134.678 210.108C134.678 210.5 134.565 210.849 134.337 211.156C134.113 211.46 133.799 211.699 133.396 211.872C132.995 212.045 132.531 212.132 132.002 212.132C131.269 212.132 130.671 211.976 130.208 211.663C129.745 211.348 129.461 210.901 129.356 210.321L130.587 210.134C130.664 210.455 130.822 210.697 131.06 210.862C131.299 211.024 131.61 211.105 131.994 211.105C132.411 211.105 132.745 211.018 132.995 210.845C133.245 210.669 133.37 210.455 133.37 210.202C133.37 209.997 133.293 209.825 133.14 209.686C132.989 209.547 132.758 209.442 132.445 209.371L131.337 209.128C130.727 208.989 130.275 208.767 129.982 208.463C129.692 208.159 129.548 207.774 129.548 207.308C129.548 206.922 129.656 206.584 129.871 206.294C130.087 206.004 130.386 205.778 130.766 205.616C131.147 205.452 131.583 205.369 132.075 205.369C132.782 205.369 133.339 205.523 133.745 205.83C134.151 206.134 134.42 206.541 134.55 207.053ZM139.135 205.455V206.477H135.559V205.455H139.135ZM136.518 203.886H137.792V210.078C137.792 210.325 137.829 210.511 137.903 210.636C137.977 210.759 138.072 210.842 138.189 210.888C138.308 210.93 138.437 210.952 138.576 210.952C138.679 210.952 138.768 210.945 138.845 210.93C138.922 210.916 138.981 210.905 139.024 210.896L139.254 211.949C139.18 211.977 139.075 212.006 138.939 212.034C138.802 212.065 138.632 212.082 138.427 212.085C138.092 212.091 137.779 212.031 137.49 211.906C137.2 211.781 136.966 211.588 136.787 211.327C136.608 211.065 136.518 210.737 136.518 210.342V203.886ZM140.544 212V205.455H141.767V206.52H141.848C141.984 206.159 142.207 205.878 142.517 205.676C142.827 205.472 143.197 205.369 143.629 205.369C144.067 205.369 144.433 205.472 144.729 205.676C145.027 205.881 145.247 206.162 145.389 206.52H145.457C145.614 206.17 145.862 205.892 146.203 205.685C146.544 205.474 146.95 205.369 147.422 205.369C148.016 205.369 148.5 205.555 148.875 205.928C149.253 206.3 149.442 206.861 149.442 207.611V212H148.168V207.73C148.168 207.287 148.047 206.966 147.805 206.767C147.564 206.568 147.276 206.469 146.94 206.469C146.526 206.469 146.203 206.597 145.973 206.852C145.743 207.105 145.628 207.43 145.628 207.828V212H144.358V207.649C144.358 207.294 144.247 207.009 144.026 206.793C143.804 206.577 143.516 206.469 143.161 206.469C142.919 206.469 142.696 206.533 142.491 206.661C142.29 206.786 142.126 206.96 142.001 207.185C141.879 207.409 141.818 207.669 141.818 207.964V212H140.544ZM153.971 212.132C153.326 212.132 152.77 211.994 152.304 211.719C151.841 211.44 151.483 211.05 151.23 210.547C150.98 210.041 150.855 209.449 150.855 208.77C150.855 208.099 150.98 207.509 151.23 206.997C151.483 206.486 151.836 206.087 152.287 205.8C152.742 205.513 153.273 205.369 153.881 205.369C154.25 205.369 154.608 205.43 154.955 205.553C155.301 205.675 155.613 205.866 155.888 206.128C156.164 206.389 156.381 206.729 156.54 207.146C156.699 207.561 156.779 208.065 156.779 208.659V209.111H151.576V208.156H155.53C155.53 207.821 155.462 207.524 155.326 207.266C155.189 207.004 154.998 206.798 154.75 206.648C154.506 206.497 154.219 206.422 153.89 206.422C153.532 206.422 153.219 206.51 152.952 206.686C152.688 206.859 152.483 207.087 152.338 207.368C152.196 207.646 152.125 207.949 152.125 208.276V209.021C152.125 209.459 152.202 209.831 152.355 210.138C152.512 210.445 152.729 210.679 153.007 210.841C153.286 211 153.611 211.08 153.983 211.08C154.225 211.08 154.445 211.045 154.644 210.977C154.843 210.906 155.015 210.801 155.159 210.662C155.304 210.523 155.415 210.351 155.492 210.146L156.698 210.364C156.601 210.719 156.428 211.03 156.178 211.297C155.931 211.561 155.62 211.767 155.245 211.915C154.873 212.06 154.448 212.132 153.971 212.132ZM159.467 208.114V212H158.192V205.455H159.415V206.52H159.496C159.647 206.173 159.883 205.895 160.204 205.685C160.528 205.474 160.935 205.369 161.427 205.369C161.873 205.369 162.263 205.463 162.599 205.651C162.934 205.835 163.194 206.111 163.379 206.477C163.563 206.844 163.656 207.297 163.656 207.837V212H162.381V207.99C162.381 207.516 162.258 207.145 162.011 206.878C161.763 206.608 161.424 206.473 160.992 206.473C160.697 206.473 160.434 206.537 160.204 206.665C159.977 206.793 159.796 206.98 159.663 207.227C159.532 207.472 159.467 207.767 159.467 208.114ZM168.42 205.455V206.477H164.844V205.455H168.42ZM165.803 203.886H167.077V210.078C167.077 210.325 167.114 210.511 167.188 210.636C167.262 210.759 167.357 210.842 167.474 210.888C167.593 210.93 167.722 210.952 167.862 210.952C167.964 210.952 168.053 210.945 168.13 210.93C168.207 210.916 168.266 210.905 168.309 210.896L168.539 211.949C168.465 211.977 168.36 212.006 168.224 212.034C168.087 212.065 167.917 212.082 167.712 212.085C167.377 212.091 167.065 212.031 166.775 211.906C166.485 211.781 166.251 211.588 166.072 211.327C165.893 211.065 165.803 210.737 165.803 210.342V203.886ZM174.629 207.053L173.474 207.257C173.425 207.109 173.349 206.969 173.244 206.835C173.141 206.702 173.002 206.592 172.826 206.507C172.65 206.422 172.43 206.379 172.165 206.379C171.805 206.379 171.504 206.46 171.262 206.622C171.021 206.781 170.9 206.987 170.9 207.24C170.9 207.459 170.981 207.635 171.143 207.768C171.305 207.902 171.566 208.011 171.927 208.097L172.967 208.335C173.569 208.474 174.018 208.689 174.313 208.979C174.609 209.268 174.756 209.645 174.756 210.108C174.756 210.5 174.643 210.849 174.415 211.156C174.191 211.46 173.877 211.699 173.474 211.872C173.073 212.045 172.609 212.132 172.08 212.132C171.347 212.132 170.749 211.976 170.286 211.663C169.823 211.348 169.539 210.901 169.434 210.321L170.665 210.134C170.742 210.455 170.9 210.697 171.138 210.862C171.377 211.024 171.688 211.105 172.072 211.105C172.489 211.105 172.823 211.018 173.073 210.845C173.323 210.669 173.448 210.455 173.448 210.202C173.448 209.997 173.371 209.825 173.218 209.686C173.067 209.547 172.836 209.442 172.523 209.371L171.415 209.128C170.805 208.989 170.353 208.767 170.06 208.463C169.771 208.159 169.626 207.774 169.626 207.308C169.626 206.922 169.734 206.584 169.95 206.294C170.165 206.004 170.464 205.778 170.844 205.616C171.225 205.452 171.661 205.369 172.153 205.369C172.86 205.369 173.417 205.523 173.823 205.83C174.229 206.134 174.498 206.541 174.629 207.053Z" fill="#1F1F1F"/>
<path d="M107.355 226.727V219.455H107.821V226.727H107.355ZM108.812 221.71C108.782 221.441 108.657 221.233 108.438 221.085C108.218 220.936 107.941 220.861 107.608 220.861C107.369 220.861 107.163 220.899 106.989 220.974C106.814 221.048 106.679 221.151 106.582 221.281C106.488 221.41 106.44 221.557 106.44 221.722C106.44 221.86 106.473 221.979 106.537 222.08C106.603 222.18 106.689 222.264 106.795 222.332C106.903 222.399 107.019 222.455 107.142 222.5C107.265 222.544 107.384 222.58 107.497 222.608L108.065 222.756C108.251 222.801 108.441 222.863 108.636 222.94C108.831 223.018 109.012 223.12 109.179 223.247C109.346 223.374 109.48 223.531 109.582 223.719C109.687 223.906 109.739 224.131 109.739 224.392C109.739 224.722 109.653 225.014 109.483 225.27C109.314 225.526 109.069 225.727 108.747 225.875C108.427 226.023 108.04 226.097 107.585 226.097C107.15 226.097 106.773 226.027 106.455 225.889C106.136 225.751 105.887 225.555 105.707 225.301C105.527 225.045 105.428 224.742 105.409 224.392H106.29C106.307 224.602 106.375 224.777 106.494 224.918C106.616 225.056 106.77 225.159 106.957 225.227C107.147 225.294 107.354 225.327 107.58 225.327C107.828 225.327 108.048 225.288 108.241 225.21C108.437 225.131 108.59 225.021 108.702 224.881C108.813 224.739 108.869 224.573 108.869 224.384C108.869 224.211 108.82 224.07 108.722 223.96C108.625 223.85 108.493 223.759 108.327 223.688C108.162 223.616 107.975 223.552 107.767 223.497L107.08 223.31C106.614 223.183 106.244 222.996 105.972 222.75C105.701 222.504 105.565 222.178 105.565 221.773C105.565 221.437 105.656 221.145 105.838 220.895C106.02 220.645 106.266 220.451 106.577 220.312C106.887 220.172 107.238 220.102 107.628 220.102C108.022 220.102 108.369 220.171 108.67 220.31C108.973 220.448 109.212 220.638 109.386 220.881C109.561 221.121 109.652 221.398 109.659 221.71H108.812ZM112.734 226.08C112.344 226.08 111.995 226.012 111.688 225.878C111.383 225.743 111.142 225.557 110.964 225.318C110.788 225.078 110.693 224.799 110.68 224.483H111.572C111.583 224.655 111.641 224.805 111.745 224.932C111.851 225.057 111.989 225.153 112.16 225.222C112.33 225.29 112.52 225.324 112.728 225.324C112.957 225.324 113.16 225.284 113.336 225.205C113.514 225.125 113.653 225.014 113.754 224.872C113.854 224.728 113.904 224.562 113.904 224.375C113.904 224.18 113.854 224.009 113.754 223.861C113.655 223.711 113.51 223.594 113.319 223.509C113.129 223.423 112.9 223.381 112.631 223.381H112.14V222.665H112.631C112.847 222.665 113.037 222.626 113.2 222.548C113.364 222.471 113.493 222.363 113.586 222.224C113.679 222.084 113.725 221.92 113.725 221.733C113.725 221.553 113.684 221.397 113.603 221.264C113.523 221.13 113.41 221.025 113.262 220.949C113.116 220.873 112.944 220.835 112.745 220.835C112.556 220.835 112.379 220.87 112.214 220.94C112.051 221.009 111.918 221.107 111.816 221.236C111.714 221.363 111.659 221.515 111.651 221.693H110.802C110.811 221.379 110.904 221.102 111.08 220.864C111.258 220.625 111.493 220.438 111.785 220.304C112.076 220.17 112.4 220.102 112.756 220.102C113.129 220.102 113.451 220.175 113.722 220.321C113.995 220.465 114.205 220.657 114.353 220.898C114.503 221.138 114.576 221.402 114.575 221.688C114.576 222.013 114.486 222.29 114.302 222.517C114.12 222.744 113.878 222.897 113.575 222.974V223.02C113.961 223.079 114.26 223.232 114.472 223.48C114.686 223.728 114.792 224.036 114.79 224.403C114.792 224.723 114.703 225.01 114.523 225.264C114.345 225.518 114.102 225.718 113.793 225.864C113.485 226.008 113.131 226.08 112.734 226.08ZM115.864 226V225.364L117.833 223.324C118.043 223.102 118.217 222.908 118.353 222.741C118.491 222.573 118.594 222.413 118.663 222.261C118.731 222.11 118.765 221.949 118.765 221.778C118.765 221.585 118.719 221.419 118.629 221.278C118.538 221.136 118.414 221.027 118.256 220.952C118.099 220.874 117.922 220.835 117.725 220.835C117.517 220.835 117.335 220.878 117.18 220.963C117.024 221.048 116.905 221.169 116.822 221.324C116.738 221.479 116.697 221.661 116.697 221.869H115.859C115.859 221.515 115.94 221.205 116.103 220.94C116.266 220.675 116.489 220.47 116.773 220.324C117.058 220.176 117.38 220.102 117.742 220.102C118.108 220.102 118.43 220.175 118.708 220.321C118.988 220.465 119.207 220.662 119.364 220.912C119.522 221.16 119.6 221.44 119.6 221.753C119.6 221.969 119.559 222.18 119.478 222.386C119.398 222.593 119.259 222.823 119.06 223.077C118.862 223.329 118.585 223.634 118.231 223.994L117.075 225.205V225.247H119.694V226H115.864ZM122.978 220.182V226H122.097V221.062H122.063L120.671 221.972V221.131L122.123 220.182H122.978ZM124.787 226.054C124.632 226.054 124.498 225.999 124.386 225.889C124.275 225.777 124.219 225.643 124.219 225.486C124.219 225.33 124.275 225.198 124.386 225.088C124.498 224.976 124.632 224.92 124.787 224.92C124.942 224.92 125.076 224.976 125.188 225.088C125.299 225.198 125.355 225.33 125.355 225.486C125.355 225.59 125.329 225.686 125.276 225.773C125.224 225.858 125.156 225.926 125.071 225.977C124.986 226.028 124.891 226.054 124.787 226.054ZM128.296 226.097C127.847 226.095 127.464 225.976 127.146 225.741C126.827 225.507 126.584 225.165 126.415 224.716C126.247 224.267 126.163 223.726 126.163 223.094C126.163 222.463 126.247 221.924 126.415 221.477C126.586 221.03 126.83 220.689 127.148 220.455C127.469 220.22 127.851 220.102 128.296 220.102C128.741 220.102 129.123 220.221 129.441 220.457C129.759 220.692 130.003 221.033 130.171 221.48C130.342 221.925 130.427 222.463 130.427 223.094C130.427 223.728 130.343 224.27 130.174 224.719C130.005 225.166 129.762 225.508 129.444 225.744C129.126 225.979 128.743 226.097 128.296 226.097ZM128.296 225.338C128.69 225.338 128.998 225.146 129.219 224.761C129.443 224.377 129.555 223.821 129.555 223.094C129.555 222.611 129.504 222.203 129.401 221.869C129.301 221.534 129.156 221.28 128.967 221.108C128.779 220.934 128.556 220.847 128.296 220.847C127.904 220.847 127.596 221.04 127.373 221.426C127.149 221.812 127.037 222.368 127.035 223.094C127.035 223.579 127.085 223.989 127.185 224.324C127.288 224.657 127.433 224.91 127.62 225.082C127.808 225.253 128.033 225.338 128.296 225.338ZM133.46 226.097C133.011 226.095 132.628 225.976 132.31 225.741C131.991 225.507 131.748 225.165 131.58 224.716C131.411 224.267 131.327 223.726 131.327 223.094C131.327 222.463 131.411 221.924 131.58 221.477C131.75 221.03 131.994 220.689 132.312 220.455C132.633 220.22 133.015 220.102 133.46 220.102C133.905 220.102 134.287 220.221 134.605 220.457C134.923 220.692 135.167 221.033 135.335 221.48C135.506 221.925 135.591 222.463 135.591 223.094C135.591 223.728 135.507 224.27 135.338 224.719C135.17 225.166 134.926 225.508 134.608 225.744C134.29 225.979 133.907 226.097 133.46 226.097ZM133.46 225.338C133.854 225.338 134.162 225.146 134.384 224.761C134.607 224.377 134.719 223.821 134.719 223.094C134.719 222.611 134.668 222.203 134.565 221.869C134.465 221.534 134.32 221.28 134.131 221.108C133.943 220.934 133.72 220.847 133.46 220.847C133.068 220.847 132.76 221.04 132.537 221.426C132.313 221.812 132.201 222.368 132.199 223.094C132.199 223.579 132.249 223.989 132.349 224.324C132.452 224.657 132.597 224.91 132.784 225.082C132.972 225.253 133.197 225.338 133.46 225.338Z" fill="#94A3B8"/>
<circle cx="122.5" cy="177.5" r="17" stroke="#E2E8F0"/>
<rect x="93.5" y="148.5" width="162" height="95" rx="9.5" stroke="#E2E8F0"/>
<path d="M276.959 212V203.273H280.07C280.749 203.273 281.311 203.396 281.757 203.643C282.203 203.891 282.537 204.229 282.759 204.658C282.98 205.084 283.091 205.564 283.091 206.098C283.091 206.635 282.979 207.118 282.754 207.547C282.533 207.973 282.197 208.311 281.749 208.561C281.303 208.808 280.741 208.932 280.065 208.932H277.926V207.815H279.946C280.375 207.815 280.723 207.741 280.99 207.594C281.257 207.443 281.453 207.239 281.578 206.98C281.703 206.722 281.766 206.428 281.766 206.098C281.766 205.768 281.703 205.476 281.578 205.22C281.453 204.964 281.256 204.764 280.986 204.619C280.719 204.474 280.366 204.402 279.929 204.402H278.276V212H276.959ZM286.379 212.145C285.964 212.145 285.589 212.068 285.254 211.915C284.918 211.759 284.653 211.533 284.457 211.237C284.263 210.942 284.167 210.58 284.167 210.151C284.167 209.781 284.238 209.477 284.38 209.239C284.522 209 284.714 208.811 284.955 208.672C285.197 208.533 285.467 208.428 285.765 208.357C286.063 208.286 286.367 208.232 286.677 208.195C287.069 208.149 287.387 208.112 287.631 208.084C287.876 208.053 288.053 208.003 288.164 207.935C288.275 207.866 288.33 207.756 288.33 207.602V207.572C288.33 207.2 288.225 206.912 288.015 206.707C287.808 206.503 287.498 206.401 287.086 206.401C286.657 206.401 286.319 206.496 286.072 206.686C285.827 206.874 285.658 207.082 285.565 207.312L284.367 207.04C284.509 206.642 284.717 206.321 284.989 206.077C285.265 205.83 285.582 205.651 285.94 205.54C286.298 205.426 286.674 205.369 287.069 205.369C287.33 205.369 287.607 205.401 287.9 205.463C288.195 205.523 288.471 205.634 288.727 205.795C288.985 205.957 289.197 206.189 289.362 206.49C289.526 206.788 289.609 207.176 289.609 207.653V212H288.364V211.105H288.313C288.231 211.27 288.107 211.432 287.942 211.591C287.778 211.75 287.566 211.882 287.308 211.987C287.049 212.092 286.739 212.145 286.379 212.145ZM286.656 211.122C287.008 211.122 287.309 211.053 287.559 210.913C287.812 210.774 288.004 210.592 288.134 210.368C288.268 210.141 288.335 209.898 288.335 209.639V208.795C288.289 208.841 288.201 208.884 288.07 208.923C287.942 208.96 287.796 208.993 287.631 209.021C287.467 209.047 287.306 209.071 287.15 209.094C286.994 209.114 286.863 209.131 286.758 209.145C286.511 209.176 286.285 209.229 286.08 209.303C285.879 209.376 285.717 209.483 285.594 209.622C285.475 209.759 285.415 209.94 285.415 210.168C285.415 210.483 285.532 210.722 285.765 210.884C285.998 211.043 286.295 211.122 286.656 211.122ZM291.306 212V205.455H292.537V206.494H292.605C292.725 206.142 292.935 205.865 293.236 205.663C293.54 205.459 293.884 205.357 294.267 205.357C294.347 205.357 294.441 205.359 294.549 205.365C294.659 205.371 294.746 205.378 294.809 205.386V206.605C294.757 206.591 294.667 206.575 294.536 206.558C294.405 206.538 294.275 206.528 294.144 206.528C293.843 206.528 293.574 206.592 293.338 206.72C293.105 206.845 292.921 207.02 292.784 207.244C292.648 207.466 292.58 207.719 292.58 208.003V212H291.306ZM298.498 212.132C297.853 212.132 297.298 211.994 296.832 211.719C296.369 211.44 296.011 211.05 295.758 210.547C295.508 210.041 295.383 209.449 295.383 208.77C295.383 208.099 295.508 207.509 295.758 206.997C296.011 206.486 296.363 206.087 296.815 205.8C297.269 205.513 297.8 205.369 298.408 205.369C298.778 205.369 299.136 205.43 299.482 205.553C299.829 205.675 300.14 205.866 300.415 206.128C300.691 206.389 300.908 206.729 301.067 207.146C301.227 207.561 301.306 208.065 301.306 208.659V209.111H296.103V208.156H300.058C300.058 207.821 299.989 207.524 299.853 207.266C299.717 207.004 299.525 206.798 299.278 206.648C299.033 206.497 298.746 206.422 298.417 206.422C298.059 206.422 297.746 206.51 297.479 206.686C297.215 206.859 297.011 207.087 296.866 207.368C296.724 207.646 296.653 207.949 296.653 208.276V209.021C296.653 209.459 296.729 209.831 296.883 210.138C297.039 210.445 297.256 210.679 297.535 210.841C297.813 211 298.138 211.08 298.511 211.08C298.752 211.08 298.972 211.045 299.171 210.977C299.37 210.906 299.542 210.801 299.687 210.662C299.832 210.523 299.942 210.351 300.019 210.146L301.225 210.364C301.129 210.719 300.955 211.03 300.705 211.297C300.458 211.561 300.147 211.767 299.772 211.915C299.4 212.06 298.975 212.132 298.498 212.132ZM303.994 208.114V212H302.72V205.455H303.943V206.52H304.024C304.174 206.173 304.41 205.895 304.731 205.685C305.055 205.474 305.463 205.369 305.954 205.369C306.4 205.369 306.791 205.463 307.126 205.651C307.461 205.835 307.721 206.111 307.906 206.477C308.091 206.844 308.183 207.297 308.183 207.837V212H306.909V207.99C306.909 207.516 306.785 207.145 306.538 206.878C306.291 206.608 305.951 206.473 305.52 206.473C305.224 206.473 304.961 206.537 304.731 206.665C304.504 206.793 304.324 206.98 304.19 207.227C304.059 207.472 303.994 207.767 303.994 208.114ZM312.947 205.455V206.477H309.372V205.455H312.947ZM310.331 203.886H311.605V210.078C311.605 210.325 311.642 210.511 311.716 210.636C311.789 210.759 311.885 210.842 312.001 210.888C312.12 210.93 312.25 210.952 312.389 210.952C312.491 210.952 312.581 210.945 312.657 210.93C312.734 210.916 312.794 210.905 312.836 210.896L313.066 211.949C312.993 211.977 312.887 212.006 312.751 212.034C312.615 212.065 312.444 212.082 312.24 212.085C311.904 212.091 311.592 212.031 311.302 211.906C311.012 211.781 310.778 211.588 310.599 211.327C310.42 211.065 310.331 210.737 310.331 210.342V203.886ZM319.156 207.053L318.001 207.257C317.953 207.109 317.876 206.969 317.771 206.835C317.669 206.702 317.529 206.592 317.353 206.507C317.177 206.422 316.957 206.379 316.693 206.379C316.332 206.379 316.031 206.46 315.789 206.622C315.548 206.781 315.427 206.987 315.427 207.24C315.427 207.459 315.508 207.635 315.67 207.768C315.832 207.902 316.093 208.011 316.454 208.097L317.494 208.335C318.096 208.474 318.545 208.689 318.841 208.979C319.136 209.268 319.284 209.645 319.284 210.108C319.284 210.5 319.17 210.849 318.943 211.156C318.718 211.46 318.404 211.699 318.001 211.872C317.6 212.045 317.136 212.132 316.608 212.132C315.875 212.132 315.277 211.976 314.814 211.663C314.35 211.348 314.066 210.901 313.961 210.321L315.193 210.134C315.27 210.455 315.427 210.697 315.666 210.862C315.904 211.024 316.216 211.105 316.599 211.105C317.017 211.105 317.35 211.018 317.6 210.845C317.85 210.669 317.975 210.455 317.975 210.202C317.975 209.997 317.899 209.825 317.745 209.686C317.595 209.547 317.363 209.442 317.051 209.371L315.943 209.128C315.332 208.989 314.88 208.767 314.588 208.463C314.298 208.159 314.153 207.774 314.153 207.308C314.153 206.922 314.261 206.584 314.477 206.294C314.693 206.004 314.991 205.778 315.372 205.616C315.752 205.452 316.189 205.369 316.68 205.369C317.387 205.369 317.944 205.523 318.35 205.83C318.757 206.134 319.025 206.541 319.156 207.053Z" fill="#1F1F1F"/>
<path d="M278.355 226.727V219.455H278.821V226.727H278.355ZM279.812 221.71C279.782 221.441 279.657 221.233 279.438 221.085C279.218 220.936 278.941 220.861 278.608 220.861C278.369 220.861 278.163 220.899 277.989 220.974C277.814 221.048 277.679 221.151 277.582 221.281C277.488 221.41 277.44 221.557 277.44 221.722C277.44 221.86 277.473 221.979 277.537 222.08C277.603 222.18 277.689 222.264 277.795 222.332C277.903 222.399 278.019 222.455 278.142 222.5C278.265 222.544 278.384 222.58 278.497 222.608L279.065 222.756C279.251 222.801 279.441 222.863 279.636 222.94C279.831 223.018 280.012 223.12 280.179 223.247C280.346 223.374 280.48 223.531 280.582 223.719C280.687 223.906 280.739 224.131 280.739 224.392C280.739 224.722 280.653 225.014 280.483 225.27C280.314 225.526 280.069 225.727 279.747 225.875C279.427 226.023 279.04 226.097 278.585 226.097C278.15 226.097 277.773 226.027 277.455 225.889C277.136 225.751 276.887 225.555 276.707 225.301C276.527 225.045 276.428 224.742 276.409 224.392H277.29C277.307 224.602 277.375 224.777 277.494 224.918C277.616 225.056 277.77 225.159 277.957 225.227C278.147 225.294 278.354 225.327 278.58 225.327C278.828 225.327 279.048 225.288 279.241 225.21C279.437 225.131 279.59 225.021 279.702 224.881C279.813 224.739 279.869 224.573 279.869 224.384C279.869 224.211 279.82 224.07 279.722 223.96C279.625 223.85 279.493 223.759 279.327 223.688C279.162 223.616 278.975 223.552 278.767 223.497L278.08 223.31C277.614 223.183 277.244 222.996 276.972 222.75C276.701 222.504 276.565 222.178 276.565 221.773C276.565 221.437 276.656 221.145 276.838 220.895C277.02 220.645 277.266 220.451 277.577 220.312C277.887 220.172 278.238 220.102 278.628 220.102C279.022 220.102 279.369 220.171 279.67 220.31C279.973 220.448 280.212 220.638 280.386 220.881C280.561 221.121 280.652 221.398 280.659 221.71H279.812ZM283.629 226.08C283.272 226.08 282.952 226.011 282.668 225.875C282.386 225.737 282.161 225.547 281.992 225.307C281.824 225.066 281.734 224.792 281.722 224.483H282.575C282.595 224.733 282.706 224.938 282.907 225.099C283.108 225.26 283.348 225.341 283.629 225.341C283.852 225.341 284.05 225.29 284.222 225.188C284.397 225.083 284.533 224.94 284.631 224.759C284.732 224.577 284.782 224.369 284.782 224.136C284.782 223.9 284.731 223.688 284.629 223.503C284.526 223.317 284.385 223.171 284.205 223.065C284.027 222.959 283.823 222.905 283.592 222.903C283.415 222.903 283.238 222.934 283.06 222.994C282.882 223.055 282.738 223.134 282.629 223.233L281.825 223.114L282.151 220.182H285.35V220.935H282.881L282.697 222.562H282.731C282.844 222.453 282.995 222.361 283.183 222.287C283.372 222.213 283.575 222.176 283.79 222.176C284.145 222.176 284.46 222.26 284.737 222.429C285.015 222.598 285.234 222.828 285.393 223.119C285.554 223.409 285.633 223.742 285.631 224.119C285.633 224.496 285.548 224.832 285.376 225.128C285.205 225.423 284.969 225.656 284.665 225.827C284.364 225.995 284.019 226.08 283.629 226.08ZM288.695 226.097C288.246 226.095 287.862 225.976 287.544 225.741C287.226 225.507 286.982 225.165 286.814 224.716C286.645 224.267 286.561 223.726 286.561 223.094C286.561 222.463 286.645 221.924 286.814 221.477C286.984 221.03 287.229 220.689 287.547 220.455C287.867 220.22 288.25 220.102 288.695 220.102C289.14 220.102 289.521 220.221 289.839 220.457C290.158 220.692 290.401 221.033 290.57 221.48C290.74 221.925 290.825 222.463 290.825 223.094C290.825 223.728 290.741 224.27 290.572 224.719C290.404 225.166 290.161 225.508 289.842 225.744C289.524 225.979 289.142 226.097 288.695 226.097ZM288.695 225.338C289.089 225.338 289.396 225.146 289.618 224.761C289.841 224.377 289.953 223.821 289.953 223.094C289.953 222.611 289.902 222.203 289.8 221.869C289.699 221.534 289.554 221.28 289.365 221.108C289.178 220.934 288.954 220.847 288.695 220.847C288.303 220.847 287.995 221.04 287.771 221.426C287.548 221.812 287.435 222.368 287.433 223.094C287.433 223.579 287.483 223.989 287.584 224.324C287.686 224.657 287.831 224.91 288.018 225.082C288.206 225.253 288.431 225.338 288.695 225.338ZM292.193 226.054C292.038 226.054 291.904 225.999 291.793 225.889C291.681 225.777 291.625 225.643 291.625 225.486C291.625 225.33 291.681 225.198 291.793 225.088C291.904 224.976 292.038 224.92 292.193 224.92C292.348 224.92 292.482 224.976 292.594 225.088C292.705 225.198 292.761 225.33 292.761 225.486C292.761 225.59 292.735 225.686 292.682 225.773C292.631 225.858 292.562 225.926 292.477 225.977C292.392 226.028 292.297 226.054 292.193 226.054ZM295.714 226.08C295.358 226.08 295.038 226.011 294.754 225.875C294.472 225.737 294.247 225.547 294.078 225.307C293.91 225.066 293.82 224.792 293.808 224.483H294.661C294.681 224.733 294.792 224.938 294.993 225.099C295.194 225.26 295.434 225.341 295.714 225.341C295.938 225.341 296.136 225.29 296.308 225.188C296.482 225.083 296.619 224.94 296.717 224.759C296.818 224.577 296.868 224.369 296.868 224.136C296.868 223.9 296.817 223.688 296.714 223.503C296.612 223.317 296.471 223.171 296.291 223.065C296.113 222.959 295.909 222.905 295.678 222.903C295.501 222.903 295.324 222.934 295.146 222.994C294.968 223.055 294.824 223.134 294.714 223.233L293.911 223.114L294.237 220.182H297.436V220.935H294.967L294.783 222.562H294.817C294.93 222.453 295.081 222.361 295.268 222.287C295.458 222.213 295.661 222.176 295.876 222.176C296.231 222.176 296.546 222.26 296.822 222.429C297.101 222.598 297.32 222.828 297.479 223.119C297.64 223.409 297.719 223.742 297.717 224.119C297.719 224.496 297.634 224.832 297.462 225.128C297.291 225.423 297.054 225.656 296.751 225.827C296.45 225.995 296.105 226.08 295.714 226.08ZM300.781 226.097C300.332 226.095 299.948 225.976 299.63 225.741C299.312 225.507 299.068 225.165 298.9 224.716C298.731 224.267 298.647 223.726 298.647 223.094C298.647 222.463 298.731 221.924 298.9 221.477C299.07 221.03 299.315 220.689 299.633 220.455C299.953 220.22 300.335 220.102 300.781 220.102C301.226 220.102 301.607 220.221 301.925 220.457C302.244 220.692 302.487 221.033 302.656 221.48C302.826 221.925 302.911 222.463 302.911 223.094C302.911 223.728 302.827 224.27 302.658 224.719C302.49 225.166 302.246 225.508 301.928 225.744C301.61 225.979 301.228 226.097 300.781 226.097ZM300.781 225.338C301.174 225.338 301.482 225.146 301.704 224.761C301.927 224.377 302.039 223.821 302.039 223.094C302.039 222.611 301.988 222.203 301.886 221.869C301.785 221.534 301.64 221.28 301.451 221.108C301.263 220.934 301.04 220.847 300.781 220.847C300.388 220.847 300.081 221.04 299.857 221.426C299.634 221.812 299.521 222.368 299.519 223.094C299.519 223.579 299.569 223.989 299.67 224.324C299.772 224.657 299.917 224.91 300.104 225.082C300.292 225.253 300.517 225.338 300.781 225.338Z" fill="#94A3B8"/>
<circle cx="293.5" cy="177.5" r="17" stroke="#E2E8F0"/>
<rect x="264.5" y="148.5" width="162" height="95" rx="9.5" stroke="#E2E8F0"/>
<path d="M303.094 174.687C301.094 169.375 294.594 171.75 294 174.406C293.188 171.594 286.844 169.5 284.906 174.687C282.75 180.469 293.25 185.656 294 186.5C294.75 185.812 305.25 180.375 303.094 174.687Z" fill="#FF5A79"/>
<path d="M105.959 313V304.273H111.43V305.406H107.276V308.065H111.145V309.195H107.276V311.866H111.482V313H105.959ZM114.992 313.145C114.577 313.145 114.202 313.068 113.867 312.915C113.532 312.759 113.266 312.533 113.07 312.237C112.877 311.942 112.78 311.58 112.78 311.151C112.78 310.781 112.851 310.477 112.993 310.239C113.135 310 113.327 309.811 113.569 309.672C113.81 309.533 114.08 309.428 114.378 309.357C114.676 309.286 114.98 309.232 115.29 309.195C115.682 309.149 116 309.112 116.245 309.084C116.489 309.053 116.667 309.003 116.777 308.935C116.888 308.866 116.944 308.756 116.944 308.602V308.572C116.944 308.2 116.838 307.912 116.628 307.707C116.421 307.503 116.111 307.401 115.699 307.401C115.27 307.401 114.932 307.496 114.685 307.686C114.441 307.874 114.272 308.082 114.178 308.312L112.98 308.04C113.123 307.642 113.33 307.321 113.603 307.077C113.878 306.83 114.195 306.651 114.553 306.54C114.911 306.426 115.287 306.369 115.682 306.369C115.944 306.369 116.221 306.401 116.513 306.463C116.809 306.523 117.084 306.634 117.34 306.795C117.598 306.957 117.81 307.189 117.975 307.49C118.14 307.788 118.222 308.176 118.222 308.653V313H116.978V312.105H116.926C116.844 312.27 116.721 312.432 116.556 312.591C116.391 312.75 116.179 312.882 115.921 312.987C115.662 313.092 115.353 313.145 114.992 313.145ZM115.269 312.122C115.621 312.122 115.922 312.053 116.172 311.913C116.425 311.774 116.617 311.592 116.748 311.368C116.881 311.141 116.948 310.898 116.948 310.639V309.795C116.902 309.841 116.814 309.884 116.684 309.923C116.556 309.96 116.409 309.993 116.245 310.021C116.08 310.047 115.919 310.071 115.763 310.094C115.607 310.114 115.476 310.131 115.371 310.145C115.124 310.176 114.898 310.229 114.694 310.303C114.492 310.376 114.33 310.483 114.208 310.622C114.088 310.759 114.029 310.94 114.029 311.168C114.029 311.483 114.145 311.722 114.378 311.884C114.611 312.043 114.908 312.122 115.269 312.122ZM122.974 306.455V307.477H119.399V306.455H122.974ZM120.358 304.886H121.632V311.078C121.632 311.325 121.669 311.511 121.743 311.636C121.817 311.759 121.912 311.842 122.028 311.888C122.148 311.93 122.277 311.952 122.416 311.952C122.518 311.952 122.608 311.945 122.685 311.93C122.761 311.916 122.821 311.905 122.864 311.896L123.094 312.949C123.02 312.977 122.915 313.006 122.778 313.034C122.642 313.065 122.472 313.082 122.267 313.085C121.932 313.091 121.619 313.031 121.33 312.906C121.04 312.781 120.805 312.588 120.626 312.327C120.447 312.065 120.358 311.737 120.358 311.342V304.886ZM135.243 308.636C135.243 309.568 135.072 310.369 134.732 311.04C134.391 311.707 133.923 312.222 133.33 312.582C132.739 312.94 132.067 313.119 131.314 313.119C130.558 313.119 129.884 312.94 129.29 312.582C128.699 312.222 128.233 311.706 127.892 311.036C127.551 310.365 127.381 309.565 127.381 308.636C127.381 307.705 127.551 306.905 127.892 306.237C128.233 305.567 128.699 305.053 129.29 304.695C129.884 304.334 130.558 304.153 131.314 304.153C132.067 304.153 132.739 304.334 133.33 304.695C133.923 305.053 134.391 305.567 134.732 306.237C135.072 306.905 135.243 307.705 135.243 308.636ZM133.939 308.636C133.939 307.926 133.824 307.328 133.594 306.842C133.366 306.354 133.054 305.984 132.656 305.734C132.261 305.482 131.814 305.355 131.314 305.355C130.811 305.355 130.362 305.482 129.967 305.734C129.572 305.984 129.26 306.354 129.03 306.842C128.803 307.328 128.689 307.926 128.689 308.636C128.689 309.347 128.803 309.946 129.03 310.435C129.26 310.92 129.572 311.29 129.967 311.543C130.362 311.793 130.811 311.918 131.314 311.918C131.814 311.918 132.261 311.793 132.656 311.543C133.054 311.29 133.366 310.92 133.594 310.435C133.824 309.946 133.939 309.347 133.939 308.636ZM140.929 310.286V306.455H142.207V313H140.954V311.866H140.886C140.735 312.216 140.494 312.507 140.162 312.74C139.832 312.97 139.422 313.085 138.93 313.085C138.51 313.085 138.137 312.993 137.814 312.808C137.493 312.621 137.24 312.344 137.055 311.977C136.873 311.611 136.782 311.158 136.782 310.618V306.455H138.056V310.464C138.056 310.911 138.18 311.266 138.427 311.53C138.674 311.794 138.995 311.926 139.39 311.926C139.629 311.926 139.866 311.866 140.102 311.747C140.341 311.628 140.538 311.447 140.694 311.206C140.853 310.964 140.931 310.658 140.929 310.286ZM146.974 306.455V307.477H143.399V306.455H146.974ZM144.358 304.886H145.632V311.078C145.632 311.325 145.669 311.511 145.743 311.636C145.817 311.759 145.912 311.842 146.028 311.888C146.148 311.93 146.277 311.952 146.416 311.952C146.518 311.952 146.608 311.945 146.685 311.93C146.761 311.916 146.821 311.905 146.864 311.896L147.094 312.949C147.02 312.977 146.915 313.006 146.778 313.034C146.642 313.065 146.472 313.082 146.267 313.085C145.932 313.091 145.619 313.031 145.33 312.906C145.04 312.781 144.805 312.588 144.626 312.327C144.447 312.065 144.358 311.737 144.358 311.342V304.886ZM153.183 308.053L152.028 308.257C151.98 308.109 151.903 307.969 151.798 307.835C151.696 307.702 151.557 307.592 151.381 307.507C151.205 307.422 150.984 307.379 150.72 307.379C150.359 307.379 150.058 307.46 149.817 307.622C149.575 307.781 149.455 307.987 149.455 308.24C149.455 308.459 149.536 308.635 149.697 308.768C149.859 308.902 150.121 309.011 150.482 309.097L151.521 309.335C152.124 309.474 152.572 309.689 152.868 309.979C153.163 310.268 153.311 310.645 153.311 311.108C153.311 311.5 153.197 311.849 152.97 312.156C152.746 312.46 152.432 312.699 152.028 312.872C151.628 313.045 151.163 313.132 150.635 313.132C149.902 313.132 149.304 312.976 148.841 312.663C148.378 312.348 148.094 311.901 147.989 311.321L149.22 311.134C149.297 311.455 149.455 311.697 149.693 311.862C149.932 312.024 150.243 312.105 150.626 312.105C151.044 312.105 151.378 312.018 151.628 311.845C151.878 311.669 152.003 311.455 152.003 311.202C152.003 310.997 151.926 310.825 151.773 310.686C151.622 310.547 151.391 310.442 151.078 310.371L149.97 310.128C149.359 309.989 148.908 309.767 148.615 309.463C148.325 309.159 148.18 308.774 148.18 308.308C148.18 307.922 148.288 307.584 148.504 307.294C148.72 307.004 149.018 306.778 149.399 306.616C149.78 306.452 150.216 306.369 150.707 306.369C151.415 306.369 151.972 306.523 152.378 306.83C152.784 307.134 153.053 307.541 153.183 308.053Z" fill="#1F1F1F"/>
<path d="M107.355 327.727V320.455H107.821V327.727H107.355ZM108.812 322.71C108.782 322.441 108.657 322.233 108.438 322.085C108.218 321.936 107.941 321.861 107.608 321.861C107.369 321.861 107.163 321.899 106.989 321.974C106.814 322.048 106.679 322.151 106.582 322.281C106.488 322.41 106.44 322.557 106.44 322.722C106.44 322.86 106.473 322.979 106.537 323.08C106.603 323.18 106.689 323.264 106.795 323.332C106.903 323.399 107.019 323.455 107.142 323.5C107.265 323.544 107.384 323.58 107.497 323.608L108.065 323.756C108.251 323.801 108.441 323.863 108.636 323.94C108.831 324.018 109.012 324.12 109.179 324.247C109.346 324.374 109.48 324.531 109.582 324.719C109.687 324.906 109.739 325.131 109.739 325.392C109.739 325.722 109.653 326.014 109.483 326.27C109.314 326.526 109.069 326.727 108.747 326.875C108.427 327.023 108.04 327.097 107.585 327.097C107.15 327.097 106.773 327.027 106.455 326.889C106.136 326.751 105.887 326.555 105.707 326.301C105.527 326.045 105.428 325.742 105.409 325.392H106.29C106.307 325.602 106.375 325.777 106.494 325.918C106.616 326.056 106.77 326.159 106.957 326.227C107.147 326.294 107.354 326.327 107.58 326.327C107.828 326.327 108.048 326.288 108.241 326.21C108.437 326.131 108.59 326.021 108.702 325.881C108.813 325.739 108.869 325.573 108.869 325.384C108.869 325.211 108.82 325.07 108.722 324.96C108.625 324.85 108.493 324.759 108.327 324.688C108.162 324.616 107.975 324.552 107.767 324.497L107.08 324.31C106.614 324.183 106.244 323.996 105.972 323.75C105.701 323.504 105.565 323.178 105.565 322.773C105.565 322.437 105.656 322.145 105.838 321.895C106.02 321.645 106.266 321.451 106.577 321.312C106.887 321.172 107.238 321.102 107.628 321.102C108.022 321.102 108.369 321.171 108.67 321.31C108.973 321.448 109.212 321.638 109.386 321.881C109.561 322.121 109.652 322.398 109.659 322.71H108.812ZM110.586 325.864V325.153L113.1 321.182H113.66V322.227H113.305L111.506 325.074V325.119H114.952V325.864H110.586ZM113.344 327V325.648L113.35 325.324V321.182H114.183V327H113.344ZM117.863 327.08C117.507 327.08 117.187 327.011 116.903 326.875C116.621 326.737 116.395 326.547 116.227 326.307C116.058 326.066 115.968 325.792 115.957 325.483H116.809C116.83 325.733 116.941 325.938 117.141 326.099C117.342 326.26 117.583 326.341 117.863 326.341C118.086 326.341 118.284 326.29 118.457 326.188C118.631 326.083 118.767 325.94 118.866 325.759C118.966 325.577 119.016 325.369 119.016 325.136C119.016 324.9 118.965 324.688 118.863 324.503C118.761 324.317 118.62 324.171 118.44 324.065C118.262 323.959 118.057 323.905 117.826 323.903C117.65 323.903 117.473 323.934 117.295 323.994C117.117 324.055 116.973 324.134 116.863 324.233L116.059 324.114L116.386 321.182H119.585V321.935H117.116L116.931 323.562H116.965C117.079 323.453 117.229 323.361 117.417 323.287C117.606 323.213 117.809 323.176 118.025 323.176C118.379 323.176 118.694 323.26 118.971 323.429C119.249 323.598 119.468 323.828 119.627 324.119C119.788 324.409 119.868 324.742 119.866 325.119C119.868 325.496 119.782 325.832 119.61 326.128C119.44 326.423 119.203 326.656 118.9 326.827C118.599 326.995 118.253 327.08 117.863 327.08ZM121.263 327.054C121.108 327.054 120.975 326.999 120.863 326.889C120.751 326.777 120.695 326.643 120.695 326.486C120.695 326.33 120.751 326.198 120.863 326.088C120.975 325.976 121.108 325.92 121.263 325.92C121.419 325.92 121.552 325.976 121.664 326.088C121.776 326.198 121.832 326.33 121.832 326.486C121.832 326.59 121.805 326.686 121.752 326.773C121.701 326.858 121.633 326.926 121.548 326.977C121.462 327.028 121.368 327.054 121.263 327.054ZM124.773 327.097C124.324 327.095 123.94 326.976 123.622 326.741C123.304 326.507 123.061 326.165 122.892 325.716C122.723 325.267 122.639 324.726 122.639 324.094C122.639 323.463 122.723 322.924 122.892 322.477C123.063 322.03 123.307 321.689 123.625 321.455C123.945 321.22 124.328 321.102 124.773 321.102C125.218 321.102 125.599 321.221 125.918 321.457C126.236 321.692 126.479 322.033 126.648 322.48C126.818 322.925 126.903 323.463 126.903 324.094C126.903 324.728 126.819 325.27 126.651 325.719C126.482 326.166 126.239 326.508 125.92 326.744C125.602 326.979 125.22 327.097 124.773 327.097ZM124.773 326.338C125.167 326.338 125.474 326.146 125.696 325.761C125.92 325.377 126.031 324.821 126.031 324.094C126.031 323.611 125.98 323.203 125.878 322.869C125.777 322.534 125.633 322.28 125.443 322.108C125.256 321.934 125.032 321.847 124.773 321.847C124.381 321.847 124.073 322.04 123.849 322.426C123.626 322.812 123.513 323.368 123.511 324.094C123.511 324.579 123.562 324.989 123.662 325.324C123.764 325.657 123.909 325.91 124.097 326.082C124.284 326.253 124.509 326.338 124.773 326.338ZM129.937 327.097C129.488 327.095 129.104 326.976 128.786 326.741C128.468 326.507 128.225 326.165 128.056 325.716C127.888 325.267 127.803 324.726 127.803 324.094C127.803 323.463 127.888 322.924 128.056 322.477C128.227 322.03 128.471 321.689 128.789 321.455C129.109 321.22 129.492 321.102 129.937 321.102C130.382 321.102 130.763 321.221 131.082 321.457C131.4 321.692 131.643 322.033 131.812 322.48C131.982 322.925 132.067 323.463 132.067 324.094C132.067 324.728 131.983 325.27 131.815 325.719C131.646 326.166 131.403 326.508 131.085 326.744C130.766 326.979 130.384 327.097 129.937 327.097ZM129.937 326.338C130.331 326.338 130.638 326.146 130.86 325.761C131.084 325.377 131.195 324.821 131.195 324.094C131.195 323.611 131.144 323.203 131.042 322.869C130.942 322.534 130.797 322.28 130.607 322.108C130.42 321.934 130.196 321.847 129.937 321.847C129.545 321.847 129.237 322.04 129.013 322.426C128.79 322.812 128.677 323.368 128.675 324.094C128.675 324.579 128.726 324.989 128.826 325.324C128.928 325.657 129.073 325.91 129.261 326.082C129.448 326.253 129.674 326.338 129.937 326.338Z" fill="#94A3B8"/>
<circle cx="122.5" cy="278.5" r="17" stroke="#E2E8F0"/>
<rect x="93.5" y="249.5" width="162" height="95" rx="9.5" stroke="#E2E8F0"/>
<path d="M123 270.111C118.398 270.111 114.667 272.607 114.667 277.056C114.667 277.088 114.696 277.477 114.736 277.894C114.884 277.886 123 284.556 123 284.556C123 284.556 131.115 277.886 131.262 277.893C131.289 277.619 131.333 277.098 131.333 277.056C131.333 272.607 127.602 270.111 123 270.111Z" fill="#BE1931"/>
<path d="M129.759 275.394C129.582 275.374 129.403 275.412 129.249 275.503C129.247 275.263 129.216 275.052 129.137 274.889L129.346 274.263C129.415 274.053 129.399 273.824 129.3 273.627C129.202 273.429 129.028 273.279 128.819 273.209C128.632 273.146 128.428 273.153 128.246 273.229C128.194 273.033 128.073 272.862 127.905 272.75C127.736 272.637 127.532 272.59 127.332 272.618C127.265 272.628 127.2 272.646 127.138 272.671C127.088 272.486 126.975 272.323 126.819 272.212C126.662 272.1 126.472 272.046 126.28 272.058C126.089 272.07 125.907 272.148 125.766 272.279C125.626 272.41 125.534 272.585 125.508 272.776L125.333 274.057C125.251 273.944 125.141 273.855 125.014 273.796C124.887 273.738 124.747 273.713 124.608 273.723C124.439 273.736 124.277 273.799 124.145 273.906C124.013 274.013 123.917 274.158 123.869 274.321L123.829 273.916C123.806 273.698 123.698 273.499 123.529 273.36C123.359 273.221 123.142 273.154 122.924 273.175C122.706 273.195 122.505 273.3 122.364 273.467C122.223 273.635 122.153 273.851 122.171 274.069L122.159 274.075C122.173 273.932 122.15 273.788 122.091 273.657C122.033 273.526 121.942 273.412 121.826 273.327L121.594 272.169C121.551 271.953 121.424 271.762 121.24 271.639C121.056 271.517 120.831 271.472 120.614 271.516C120.397 271.559 120.207 271.687 120.084 271.87C119.961 272.054 119.917 272.279 119.96 272.496L120.359 274.491L120.147 275.383L119.339 273.159C119.302 273.057 119.244 272.962 119.17 272.881C119.096 272.801 119.007 272.735 118.908 272.689C118.708 272.596 118.478 272.586 118.271 272.661C118.063 272.737 117.894 272.892 117.8 273.092C117.707 273.292 117.697 273.522 117.772 273.729L118.388 275.422C118.196 275.553 118.058 275.761 118.029 276.01L117.893 277.176L117.711 276.086C117.673 275.87 117.55 275.678 117.371 275.551C117.192 275.425 116.97 275.374 116.754 275.41C116.538 275.446 116.344 275.566 116.216 275.744C116.087 275.922 116.034 276.143 116.067 276.359L116.928 281.526H129.876C129.903 281.458 130.496 276.314 130.496 276.314C130.52 276.095 130.456 275.874 130.318 275.702C130.18 275.529 129.979 275.418 129.759 275.394Z" fill="#F4900C"/>
<path d="M128.27 273.332C128.265 273.296 128.254 273.263 128.246 273.229C128.194 273.033 128.073 272.863 127.905 272.75C127.736 272.638 127.532 272.591 127.332 272.618C127.265 272.628 127.2 272.646 127.138 272.672C126.965 272.74 126.82 272.864 126.726 273.024C126.631 273.185 126.594 273.372 126.619 273.557L127.706 281.525H129.388L128.27 273.332ZM125.498 274.496C125.486 274.337 125.429 274.185 125.333 274.057C125.25 273.945 125.14 273.855 125.013 273.797C124.886 273.739 124.747 273.713 124.607 273.724C124.438 273.736 124.276 273.8 124.144 273.907C124.012 274.014 123.916 274.158 123.869 274.321C123.84 274.416 123.829 274.515 123.835 274.614L124.323 281.454L124.328 281.525H126L125.999 281.51L125.498 274.496ZM118.953 275.278C118.753 275.256 118.553 275.307 118.388 275.422C118.196 275.553 118.058 275.761 118.029 276.009L117.385 281.526H119.063L119.684 276.203C119.697 276.094 119.688 275.984 119.658 275.879C119.628 275.773 119.578 275.675 119.51 275.589C119.442 275.503 119.358 275.432 119.262 275.378C119.167 275.325 119.061 275.291 118.953 275.278ZM121.595 272.17C121.552 271.953 121.424 271.763 121.24 271.64C121.056 271.517 120.831 271.473 120.614 271.516C120.398 271.559 120.207 271.687 120.084 271.871C119.962 272.055 119.917 272.28 119.961 272.497L121.766 281.526H123.466L121.595 272.17Z" fill="#FFCC4D"/>
<path d="M129.111 278.444C129.111 279.979 126.682 281.222 123 281.222C119.318 281.222 116.889 279.979 116.889 278.444C116.889 277.831 115.836 277.889 115.222 277.889C115.047 277.889 114.884 277.886 114.736 277.894C114.77 278.247 115.778 286.222 115.778 286.222C115.778 286.812 116.012 287.377 116.429 287.794C116.845 288.21 117.411 288.444 118 288.444H128C128.589 288.444 129.155 288.21 129.571 287.794C129.988 287.377 130.222 286.812 130.222 286.222C130.222 286.222 131.254 277.964 131.262 277.893C131.115 277.886 130.952 277.889 130.778 277.889C130.164 277.889 129.111 277.831 129.111 278.444Z" fill="#DD2E44"/>
<path d="M123 286.778C124.227 286.778 125.222 285.783 125.222 284.556C125.222 283.328 124.227 282.333 123 282.333C121.773 282.333 120.778 283.328 120.778 284.556C120.778 285.783 121.773 286.778 123 286.778Z" fill="#BE1931"/>
<path d="M282.865 307.03C282.783 306.771 282.672 306.54 282.533 306.335C282.396 306.128 282.233 305.952 282.043 305.807C281.852 305.659 281.635 305.547 281.391 305.47C281.149 305.393 280.884 305.355 280.594 305.355C280.102 305.355 279.659 305.482 279.264 305.734C278.869 305.987 278.557 306.358 278.327 306.847C278.099 307.332 277.986 307.928 277.986 308.632C277.986 309.339 278.101 309.937 278.331 310.426C278.561 310.915 278.876 311.286 279.277 311.538C279.678 311.791 280.134 311.918 280.645 311.918C281.119 311.918 281.533 311.821 281.885 311.628C282.24 311.435 282.514 311.162 282.707 310.81C282.903 310.455 283.001 310.037 283.001 309.557L283.342 309.621H280.845V308.534H284.276V309.527C284.276 310.26 284.119 310.896 283.807 311.436C283.497 311.973 283.068 312.388 282.52 312.68C281.974 312.973 281.349 313.119 280.645 313.119C279.855 313.119 279.162 312.938 278.565 312.574C277.972 312.21 277.509 311.695 277.176 311.027C276.844 310.357 276.678 309.561 276.678 308.641C276.678 307.945 276.774 307.32 276.967 306.766C277.161 306.212 277.432 305.741 277.781 305.355C278.134 304.966 278.547 304.669 279.021 304.464C279.499 304.257 280.02 304.153 280.585 304.153C281.057 304.153 281.496 304.223 281.902 304.362C282.311 304.501 282.675 304.699 282.993 304.955C283.314 305.21 283.58 305.514 283.79 305.866C284 306.216 284.142 306.604 284.216 307.03H282.865ZM286.255 313V306.455H287.529V313H286.255ZM286.898 305.445C286.677 305.445 286.487 305.371 286.327 305.223C286.171 305.072 286.093 304.893 286.093 304.686C286.093 304.476 286.171 304.297 286.327 304.149C286.487 303.999 286.677 303.923 286.898 303.923C287.12 303.923 287.309 303.999 287.465 304.149C287.624 304.297 287.704 304.476 287.704 304.686C287.704 304.893 287.624 305.072 287.465 305.223C287.309 305.371 287.12 305.445 286.898 305.445ZM292.358 306.455V307.477H288.659V306.455H292.358ZM289.674 313V305.696C289.674 305.287 289.763 304.947 289.942 304.678C290.121 304.405 290.358 304.202 290.654 304.068C290.949 303.932 291.27 303.864 291.617 303.864C291.873 303.864 292.091 303.885 292.273 303.928C292.455 303.967 292.59 304.004 292.678 304.038L292.38 305.07C292.32 305.053 292.243 305.033 292.15 305.01C292.056 304.984 291.942 304.972 291.809 304.972C291.499 304.972 291.277 305.048 291.144 305.202C291.013 305.355 290.948 305.577 290.948 305.866V313H289.674ZM296.728 306.455V307.477H293.153V306.455H296.728ZM294.112 304.886H295.386V311.078C295.386 311.325 295.423 311.511 295.497 311.636C295.571 311.759 295.666 311.842 295.782 311.888C295.902 311.93 296.031 311.952 296.17 311.952C296.272 311.952 296.362 311.945 296.439 311.93C296.515 311.916 296.575 311.905 296.618 311.896L296.848 312.949C296.774 312.977 296.669 313.006 296.532 313.034C296.396 313.065 296.225 313.082 296.021 313.085C295.686 313.091 295.373 313.031 295.083 312.906C294.794 312.781 294.559 312.588 294.38 312.327C294.201 312.065 294.112 311.737 294.112 311.342V304.886ZM302.937 308.053L301.782 308.257C301.734 308.109 301.657 307.969 301.552 307.835C301.45 307.702 301.311 307.592 301.135 307.507C300.958 307.422 300.738 307.379 300.474 307.379C300.113 307.379 299.812 307.46 299.571 307.622C299.329 307.781 299.208 307.987 299.208 308.24C299.208 308.459 299.289 308.635 299.451 308.768C299.613 308.902 299.875 309.011 300.235 309.097L301.275 309.335C301.877 309.474 302.326 309.689 302.622 309.979C302.917 310.268 303.065 310.645 303.065 311.108C303.065 311.5 302.951 311.849 302.724 312.156C302.5 312.46 302.186 312.699 301.782 312.872C301.382 313.045 300.917 313.132 300.389 313.132C299.656 313.132 299.058 312.976 298.595 312.663C298.132 312.348 297.848 311.901 297.743 311.321L298.974 311.134C299.051 311.455 299.208 311.697 299.447 311.862C299.686 312.024 299.997 312.105 300.38 312.105C300.798 312.105 301.132 312.018 301.382 311.845C301.632 311.669 301.757 311.455 301.757 311.202C301.757 310.997 301.68 310.825 301.527 310.686C301.376 310.547 301.145 310.442 300.832 310.371L299.724 310.128C299.113 309.989 298.662 309.767 298.369 309.463C298.079 309.159 297.934 308.774 297.934 308.308C297.934 307.922 298.042 307.584 298.258 307.294C298.474 307.004 298.772 306.778 299.153 306.616C299.534 306.452 299.97 306.369 300.461 306.369C301.169 306.369 301.725 306.523 302.132 306.83C302.538 307.134 302.806 307.541 302.937 308.053Z" fill="#1F1F1F"/>
<path d="M278.355 327.727V320.455H278.821V327.727H278.355ZM279.812 322.71C279.782 322.441 279.657 322.233 279.438 322.085C279.218 321.936 278.941 321.861 278.608 321.861C278.369 321.861 278.163 321.899 277.989 321.974C277.814 322.048 277.679 322.151 277.582 322.281C277.488 322.41 277.44 322.557 277.44 322.722C277.44 322.86 277.473 322.979 277.537 323.08C277.603 323.18 277.689 323.264 277.795 323.332C277.903 323.399 278.019 323.455 278.142 323.5C278.265 323.544 278.384 323.58 278.497 323.608L279.065 323.756C279.251 323.801 279.441 323.863 279.636 323.94C279.831 324.018 280.012 324.12 280.179 324.247C280.346 324.374 280.48 324.531 280.582 324.719C280.687 324.906 280.739 325.131 280.739 325.392C280.739 325.722 280.653 326.014 280.483 326.27C280.314 326.526 280.069 326.727 279.747 326.875C279.427 327.023 279.04 327.097 278.585 327.097C278.15 327.097 277.773 327.027 277.455 326.889C277.136 326.751 276.887 326.555 276.707 326.301C276.527 326.045 276.428 325.742 276.409 325.392H277.29C277.307 325.602 277.375 325.777 277.494 325.918C277.616 326.056 277.77 326.159 277.957 326.227C278.147 326.294 278.354 326.327 278.58 326.327C278.828 326.327 279.048 326.288 279.241 326.21C279.437 326.131 279.59 326.021 279.702 325.881C279.813 325.739 279.869 325.573 279.869 325.384C279.869 325.211 279.82 325.07 279.722 324.96C279.625 324.85 279.493 324.759 279.327 324.688C279.162 324.616 278.975 324.552 278.767 324.497L278.08 324.31C277.614 324.183 277.244 323.996 276.972 323.75C276.701 323.504 276.565 323.178 276.565 322.773C276.565 322.437 276.656 322.145 276.838 321.895C277.02 321.645 277.266 321.451 277.577 321.312C277.887 321.172 278.238 321.102 278.628 321.102C279.022 321.102 279.369 321.171 279.67 321.31C279.973 321.448 280.212 321.638 280.386 321.881C280.561 322.121 280.652 322.398 280.659 322.71H279.812ZM283.915 321.182V327H283.035V322.062H283.001L281.609 322.972V322.131L283.06 321.182H283.915ZM287.515 327.097C287.066 327.095 286.683 326.976 286.364 326.741C286.046 326.507 285.803 326.165 285.634 325.716C285.466 325.267 285.381 324.726 285.381 324.094C285.381 323.463 285.466 322.924 285.634 322.477C285.805 322.03 286.049 321.689 286.367 321.455C286.687 321.22 287.07 321.102 287.515 321.102C287.96 321.102 288.342 321.221 288.66 321.457C288.978 321.692 289.221 322.033 289.39 322.48C289.56 322.925 289.646 323.463 289.646 324.094C289.646 324.728 289.561 325.27 289.393 325.719C289.224 326.166 288.981 326.508 288.663 326.744C288.344 326.979 287.962 327.097 287.515 327.097ZM287.515 326.338C287.909 326.338 288.217 326.146 288.438 325.761C288.662 325.377 288.773 324.821 288.773 324.094C288.773 323.611 288.722 323.203 288.62 322.869C288.52 322.534 288.375 322.28 288.185 322.108C287.998 321.934 287.774 321.847 287.515 321.847C287.123 321.847 286.815 322.04 286.592 322.426C286.368 322.812 286.255 323.368 286.254 324.094C286.254 324.579 286.304 324.989 286.404 325.324C286.506 325.657 286.651 325.91 286.839 326.082C287.026 326.253 287.252 326.338 287.515 326.338ZM291.013 327.054C290.858 327.054 290.725 326.999 290.613 326.889C290.501 326.777 290.445 326.643 290.445 326.486C290.445 326.33 290.501 326.198 290.613 326.088C290.725 325.976 290.858 325.92 291.013 325.92C291.169 325.92 291.302 325.976 291.414 326.088C291.526 326.198 291.582 326.33 291.582 326.486C291.582 326.59 291.555 326.686 291.502 326.773C291.451 326.858 291.383 326.926 291.298 326.977C291.212 327.028 291.118 327.054 291.013 327.054ZM294.523 327.097C294.074 327.095 293.69 326.976 293.372 326.741C293.054 326.507 292.811 326.165 292.642 325.716C292.473 325.267 292.389 324.726 292.389 324.094C292.389 323.463 292.473 322.924 292.642 322.477C292.813 322.03 293.057 321.689 293.375 321.455C293.695 321.22 294.078 321.102 294.523 321.102C294.968 321.102 295.349 321.221 295.668 321.457C295.986 321.692 296.229 322.033 296.398 322.48C296.568 322.925 296.653 323.463 296.653 324.094C296.653 324.728 296.569 325.27 296.401 325.719C296.232 326.166 295.989 326.508 295.67 326.744C295.352 326.979 294.97 327.097 294.523 327.097ZM294.523 326.338C294.917 326.338 295.224 326.146 295.446 325.761C295.67 325.377 295.781 324.821 295.781 324.094C295.781 323.611 295.73 323.203 295.628 322.869C295.527 322.534 295.383 322.28 295.193 322.108C295.006 321.934 294.782 321.847 294.523 321.847C294.131 321.847 293.823 322.04 293.599 322.426C293.376 322.812 293.263 323.368 293.261 324.094C293.261 324.579 293.312 324.989 293.412 325.324C293.514 325.657 293.659 325.91 293.847 326.082C294.034 326.253 294.259 326.338 294.523 326.338ZM299.687 327.097C299.238 327.095 298.854 326.976 298.536 326.741C298.218 326.507 297.975 326.165 297.806 325.716C297.638 325.267 297.553 324.726 297.553 324.094C297.553 323.463 297.638 322.924 297.806 322.477C297.977 322.03 298.221 321.689 298.539 321.455C298.859 321.22 299.242 321.102 299.687 321.102C300.132 321.102 300.513 321.221 300.832 321.457C301.15 321.692 301.393 322.033 301.562 322.48C301.732 322.925 301.817 323.463 301.817 324.094C301.817 324.728 301.733 325.27 301.565 325.719C301.396 326.166 301.153 326.508 300.835 326.744C300.516 326.979 300.134 327.097 299.687 327.097ZM299.687 326.338C300.081 326.338 300.388 326.146 300.61 325.761C300.834 325.377 300.945 324.821 300.945 324.094C300.945 323.611 300.894 323.203 300.792 322.869C300.692 322.534 300.547 322.28 300.357 322.108C300.17 321.934 299.946 321.847 299.687 321.847C299.295 321.847 298.987 322.04 298.763 322.426C298.54 322.812 298.427 323.368 298.425 324.094C298.425 324.579 298.476 324.989 298.576 325.324C298.678 325.657 298.823 325.91 299.011 326.082C299.198 326.253 299.424 326.338 299.687 326.338Z" fill="#94A3B8"/>
<circle cx="293.5" cy="278.5" r="17" stroke="#E2E8F0"/>
<rect x="264.5" y="249.5" width="162" height="95" rx="9.5" stroke="#E2E8F0"/>
<path d="M294 275.667C290.318 275.667 287.333 278.652 287.333 282.333C287.333 286.015 290.318 289 294 289C297.682 289 300.667 286.015 300.667 282.333C300.667 278.652 297.682 275.667 294 275.667ZM294 286.778C292.821 286.778 291.691 286.309 290.857 285.476C290.024 284.642 289.556 283.512 289.556 282.333C289.556 281.155 290.024 280.024 290.857 279.191C291.691 278.357 292.821 277.889 294 277.889C295.179 277.889 296.309 278.357 297.143 279.191C297.976 280.024 298.444 281.155 298.444 282.333C298.444 283.512 297.976 284.642 297.143 285.476C296.309 286.309 295.179 286.778 294 286.778Z" fill="#9AAAB4"/>
<path d="M300.111 271.778L297.889 269H290.111L287.889 271.778L294 276.778L300.111 271.778Z" fill="#5DADEC"/>
<path d="M300.111 271.778L297.889 269H290.111L287.889 271.778H294H300.111Z" fill="#8CCAF7"/>
<path d="M300.111 271.778L297.889 269H294V271.778H294.556H300.111Z" fill="#5DADEC"/>
<path d="M294 271.778H300.111L294 276.778V271.778Z" fill="#8CCAF7"/>
<path d="M297.889 276.222C297.889 276.664 297.713 277.088 297.401 277.401C297.088 277.713 296.664 277.889 296.222 277.889H291.778C291.336 277.889 290.912 277.713 290.599 277.401C290.287 277.088 290.111 276.664 290.111 276.222C290.111 275.78 290.287 275.356 290.599 275.044C290.912 274.731 291.336 274.556 291.778 274.556H296.222C296.664 274.556 297.088 274.731 297.401 275.044C297.713 275.356 297.889 275.78 297.889 276.222Z" fill="#9AAAB4"/>
</svg>
